<svg width="120" height="120" viewBox="0 0 120 120" fill="none" xmlns="http://www.w3.org/2000/svg">
<path d="M29.477 36.0708C13.2535 36.0708 0.0546875 49.2697 0.0546875 65.4931C0.0546875 75.5659 4.84626 86.3959 14.2965 97.6825C15.7007 99.3594 17.0999 100.913 18.4426 102.331C12.3409 103.997 8.67736 106.989 8.67736 110.481C8.67736 116.664 19.3935 120 29.4761 120C39.5589 120 50.2748 116.664 50.2748 110.481C50.2748 106.992 46.6124 103.999 40.5147 102.332C42.9508 99.7607 45.572 96.7349 48.0592 93.3599C48.6358 92.5773 48.4689 91.476 47.6866 90.8994C46.9047 90.3236 45.8027 90.49 45.2261 91.2723C42.2233 95.3474 38.973 98.9286 36.1368 101.773C35.8117 101.939 35.5398 102.203 35.3694 102.535C32.8288 105.032 30.6908 106.884 29.4777 107.896C28.2779 106.894 26.1726 105.066 23.6645 102.602C23.4845 102.208 23.1683 101.898 22.7825 101.726C14.8121 93.7091 3.57384 79.8585 3.57384 65.4936C3.57384 51.2107 15.1939 39.5907 29.4768 39.5907C43.7596 39.5907 55.3797 51.2107 55.3797 65.4936C55.3797 71.731 53.2544 78.467 49.0628 85.5144C48.5662 86.3499 48.8404 87.4297 49.6757 87.9264C50.511 88.423 51.591 88.1488 52.0877 87.3135C56.6074 79.7141 58.8991 72.373 58.8991 65.4936C58.8993 49.2697 45.7005 36.0708 29.477 36.0708ZM28.4001 111.556C28.7169 111.801 29.0971 111.924 29.477 111.924C29.8569 111.924 30.2369 111.801 30.554 111.556C30.7698 111.389 33.7103 109.096 37.6298 105.263C43.5646 106.474 46.7559 108.804 46.7559 110.481C46.7559 111.734 45.0388 113.212 42.2748 114.338C38.8848 115.72 34.3396 116.481 29.4763 116.481C18.928 116.481 12.1967 112.927 12.1967 110.481C12.1967 108.802 15.3889 106.472 21.3271 105.262C25.2683 109.117 28.213 111.411 28.4001 111.556Z" fill="black"/>
<path d="M29.477 52.7003C26.6938 52.7003 24.0472 53.5789 21.8235 55.2414C21.0454 55.8233 20.886 56.926 21.4677 57.7044C22.0499 58.4825 23.1526 58.6417 23.9308 58.0602C25.5412 56.8562 27.459 56.2196 29.4768 56.2196C34.5902 56.2196 38.7501 60.3796 38.7501 65.4932C38.7501 70.6065 34.5902 74.7665 29.4768 74.7665C24.3634 74.7665 20.2035 70.6063 20.2035 65.4932C20.2035 64.6206 20.3242 63.7579 20.5621 62.9296C20.8302 61.9956 20.2904 61.0211 19.3565 60.7527C18.4227 60.4855 17.4479 61.0246 17.1796 61.9586C16.8512 63.103 16.6846 64.292 16.6846 65.4932C16.6846 72.5469 22.4233 78.2859 29.4773 78.2859C36.531 78.2859 42.2699 72.5472 42.2699 65.4932C42.2697 58.4392 36.5308 52.7003 29.477 52.7003Z" fill="black"/>
<path d="M106.163 51.1222C107.058 50.1615 107.98 49.1265 108.905 48.0217C116.231 39.2717 119.946 30.8602 119.946 23.0201C119.946 10.3271 109.619 0 96.9256 0C87.653 0 79.3273 5.5186 75.7154 14.0592C75.3366 14.9543 75.7554 15.987 76.6503 16.3653C77.5451 16.7435 78.578 16.3252 78.9563 15.4303C82.0168 8.1947 89.0701 3.51915 96.9256 3.51915C107.679 3.51915 116.427 12.2674 116.427 23.0204C116.427 37.5617 101.16 51.4932 96.9249 55.0771C95.9916 54.2884 94.5226 52.9974 92.8002 51.309C92.6284 50.9685 92.3509 50.6985 92.0176 50.5313C85.9419 44.4139 77.4247 33.8982 77.4247 23.0204C77.4247 22.0484 76.6372 21.2607 75.665 21.2607C74.6932 21.2607 73.9053 22.0484 73.9053 23.0204C73.9053 30.8602 77.6199 39.2717 84.9462 48.0219C85.8708 49.126 86.7924 50.1606 87.6873 51.121C83.1512 52.4839 80.5325 54.8038 80.5325 57.5973C80.5325 59.9532 82.4436 62.0296 85.9142 63.4436C88.8837 64.6536 92.7943 65.3202 96.9254 65.3202C101.056 65.3202 104.967 64.6536 107.937 63.4436C111.407 62.0293 113.318 59.953 113.318 57.5971C113.317 54.8087 110.697 52.4867 106.163 51.1222ZM96.9252 61.8006C88.5957 61.8006 84.0519 59.0237 84.0519 57.5968C84.0519 56.6673 86.1188 54.9662 90.5326 54.0278C93.5023 56.9174 95.7066 58.6344 95.8489 58.7448C96.166 58.9902 96.5459 59.1128 96.9259 59.1128C97.3058 59.1128 97.6855 58.9902 98.0028 58.7448C98.1451 58.6349 100.349 56.9176 103.319 54.0282C105.285 54.4475 106.989 55.0618 108.181 55.7874C109.194 56.4048 109.799 57.0812 109.799 57.5968C109.798 59.0237 105.254 61.8006 96.9252 61.8006Z" fill="black"/>
<path d="M96.9249 12.781C91.2791 12.781 86.6855 17.3743 86.6855 23.0206C86.6855 28.6665 91.2788 33.2598 96.9249 33.2598C102.571 33.2598 107.164 28.6667 107.164 23.0206C107.164 17.3745 102.571 12.781 96.9249 12.781ZM96.9252 29.7404C93.2192 29.7404 90.2049 26.7259 90.2049 23.0204C90.2049 19.3149 93.2195 16.3002 96.9252 16.3002C100.631 16.3002 103.645 19.3147 103.645 23.0204C103.645 26.7259 100.631 29.7404 96.9252 29.7404Z" fill="black"/>
<path d="M74.0996 55.8373H73.2962C72.7112 55.8373 72.1234 55.876 71.5482 55.9527C70.5852 56.0809 69.9081 56.9654 70.036 57.9291C70.1539 58.8139 70.9096 59.457 71.7782 59.457C71.8555 59.457 71.9338 59.4521 72.0125 59.4416C72.4342 59.3856 72.8661 59.3572 73.2964 59.3572H74.0996V59.357C75.0716 59.357 75.8593 58.5695 75.8593 57.5973C75.8593 56.6251 75.0716 55.8373 74.0996 55.8373Z" fill="black"/>
<path d="M68.2822 108.632C68.2794 108.632 68.2769 108.632 68.274 108.632L65.95 108.643C64.9783 108.647 64.194 109.439 64.1983 110.41C64.2025 111.379 64.9897 112.162 65.9577 112.162C65.9605 112.162 65.9631 112.162 65.9659 112.162L68.29 112.151C69.2617 112.147 70.0459 111.356 70.0417 110.384C70.0375 109.414 69.2504 108.632 68.2822 108.632Z" fill="black"/>
<path d="M76.1873 78.6304H73.8632C72.8912 78.6304 72.1035 79.4183 72.1035 80.3901C72.1035 81.362 72.891 82.1497 73.8632 82.1497H76.1873C77.1592 82.1497 77.947 81.3622 77.947 80.3901C77.947 79.4183 77.1595 78.6304 76.1873 78.6304Z" fill="black"/>
<path d="M66.864 59.4226C66.2052 58.7087 65.0923 58.6637 64.3775 59.3223C63.7215 59.9272 63.1248 60.6015 62.604 61.3267C62.037 62.1163 62.2175 63.2158 63.0069 63.7827C63.3174 64.0058 63.6765 64.1132 64.032 64.1132C64.5793 64.1132 65.1188 63.8584 65.4626 63.3798C65.8447 62.848 66.2825 62.353 66.7637 61.9091C67.478 61.2503 67.5228 60.137 66.864 59.4226Z" fill="black"/>
<path d="M77.5789 108.589C77.5761 108.589 77.5735 108.589 77.5707 108.589L75.2469 108.6C74.2751 108.604 73.4909 109.396 73.4951 110.368C73.4994 111.337 74.2866 112.119 75.2546 112.119C75.2574 112.119 75.26 112.119 75.2628 112.119L77.5866 112.109C78.5583 112.105 79.3426 111.313 79.3383 110.341C79.3339 109.372 78.5469 108.589 77.5789 108.589Z" fill="black"/>
<path d="M58.9854 108.674C58.9826 108.674 58.98 108.674 58.9772 108.674L56.6531 108.685C55.6814 108.689 54.8972 109.48 54.9014 110.452C54.9058 111.421 55.6924 112.204 56.6608 112.204C56.6637 112.204 56.6662 112.204 56.669 112.204L58.9931 112.193C59.9648 112.189 60.7491 111.397 60.7449 110.426C60.7406 109.456 59.9536 108.674 58.9854 108.674Z" fill="black"/>
<path d="M68.1635 77.1512C67.6107 76.8025 67.0906 76.3951 66.6183 75.9412C65.9178 75.2673 64.8035 75.2896 64.1302 75.9894C63.4563 76.6897 63.4781 77.8037 64.1785 78.4773C64.8225 79.0968 65.5315 79.652 66.2857 80.1278C66.5773 80.3118 66.9019 80.3994 67.223 80.3994C67.8071 80.3994 68.3782 80.109 68.7132 79.5782C69.2318 78.7565 68.9855 77.6697 68.1635 77.1512Z" fill="black"/>
<path d="M63.8372 70.8486C63.719 70.242 63.659 69.6181 63.659 68.9937L63.6595 68.896C63.671 67.9243 62.8924 67.1274 61.9204 67.1161C61.9136 67.1159 61.9066 67.1159 61.8996 67.1159C60.9372 67.1159 60.1516 67.8903 60.1404 68.8552L60.1396 68.994C60.1396 69.8438 60.2214 70.6944 60.3827 71.5219C60.5463 72.3622 61.2827 72.9451 62.1079 72.9451C62.2193 72.9451 62.3327 72.9345 62.4461 72.9123C63.4003 72.7264 64.0228 71.8025 63.8372 70.8486Z" fill="black"/>
<path d="M85.4842 78.6304H83.1601C82.1881 78.6304 81.4004 79.4183 81.4004 80.3901C81.4004 81.362 82.1881 82.1497 83.1601 82.1497H85.4842C86.4561 82.1497 87.2438 81.3622 87.2438 80.3901C87.2438 79.4183 86.4561 78.6304 85.4842 78.6304Z" fill="black"/>
<path d="M113.736 82.2131C113.058 81.678 112.333 81.1919 111.582 80.7688C110.736 80.2917 109.662 80.5914 109.185 81.4382C108.708 82.2848 109.007 83.3582 109.854 83.8349C110.447 84.1694 111.02 84.5528 111.555 84.9754C111.878 85.2306 112.262 85.3541 112.644 85.3541C113.164 85.3541 113.679 85.1245 114.026 84.6848C114.629 83.9219 114.499 82.8152 113.736 82.2131Z" fill="black"/>
<path d="M107.204 109.85C107.071 108.888 106.181 108.214 105.22 108.348C104.644 108.428 104.054 108.47 103.465 108.472L103.136 108.474C102.164 108.479 101.38 109.27 101.385 110.242C101.39 111.211 102.177 111.993 103.144 111.993C103.147 111.993 103.15 111.993 103.153 111.993L103.481 111.991C104.225 111.988 104.972 111.935 105.702 111.834C106.665 111.701 107.337 110.813 107.204 109.85Z" fill="black"/>
<path d="M114.97 104.902C114.3 104.198 113.186 104.171 112.482 104.842C111.989 105.312 111.454 105.747 110.894 106.136C110.095 106.69 109.897 107.786 110.45 108.585C110.792 109.078 111.34 109.342 111.898 109.342C112.244 109.342 112.593 109.241 112.899 109.029C113.608 108.537 114.285 107.985 114.91 107.39C115.614 106.719 115.64 105.605 114.97 104.902Z" fill="black"/>
<path d="M118.395 96.356C117.441 96.1762 116.52 96.8043 116.34 97.7594C116.214 98.429 116.034 99.0935 115.806 99.7347C115.479 100.65 115.957 101.657 116.872 101.983C117.068 102.053 117.267 102.086 117.463 102.086C118.186 102.086 118.864 101.637 119.121 100.917C119.411 100.103 119.639 99.2603 119.799 98.4107C119.978 97.4556 119.35 96.5355 118.395 96.356Z" fill="black"/>
<path d="M119.44 90.6996C119.202 89.8688 118.896 89.0503 118.53 88.2659C118.119 87.3851 117.072 87.0044 116.191 87.4151C115.31 87.8262 114.929 88.8731 115.34 89.7539C115.629 90.3715 115.87 91.0165 116.058 91.6704C116.279 92.4422 116.983 92.9452 117.748 92.9452C117.909 92.9452 118.072 92.9229 118.235 92.8765C119.169 92.6081 119.708 91.6336 119.44 90.6996Z" fill="black"/>
<path d="M94.781 78.6304H92.457C91.485 78.6304 90.6973 79.4183 90.6973 80.3901C90.6973 81.362 91.4848 82.1497 92.457 82.1497H94.781C95.753 82.1497 96.5407 81.3622 96.5407 80.3901C96.5407 79.4183 95.753 78.6304 94.781 78.6304Z" fill="black"/>
<path d="M86.875 108.547C86.8722 108.547 86.8696 108.547 86.8668 108.547L84.5428 108.558C83.571 108.562 82.7868 109.354 82.791 110.325C82.7955 111.295 83.5825 112.077 84.5505 112.077C84.5533 112.077 84.5559 112.077 84.5587 112.077L86.8827 112.067C87.8545 112.062 88.6387 111.271 88.6345 110.299C88.6302 109.33 87.843 108.547 86.875 108.547Z" fill="black"/>
<path d="M104.155 78.6473C103.907 78.636 103.654 78.6306 103.406 78.6306H101.754C100.782 78.6306 99.9941 79.4186 99.9941 80.3903C99.9941 81.3623 100.782 82.15 101.754 82.15H103.406V82.1498C103.605 82.1498 103.803 82.1542 104 82.1629C104.026 82.1643 104.053 82.1648 104.079 82.1648C105.015 82.1648 105.794 81.4274 105.835 80.4831C105.878 79.5119 105.126 78.6901 104.155 78.6473Z" fill="black"/>
<path d="M96.1719 108.505C96.1691 108.505 96.1665 108.505 96.1637 108.505L93.8396 108.516C92.8679 108.52 92.0837 109.312 92.0879 110.284C92.0924 111.253 92.8794 112.035 93.8474 112.035C93.8502 112.035 93.853 112.035 93.8556 112.035L96.1796 112.025C97.1514 112.02 97.9356 111.229 97.9314 110.257C97.9271 109.288 97.1401 108.505 96.1719 108.505Z" fill="black"/>
</svg>
