<svg width="148" height="40" viewBox="0 0 148 40" fill="none" xmlns="http://www.w3.org/2000/svg">
<path d="M75.0324 9.87342C70.6825 9.87342 66.7619 12.4948 65.0971 16.5122C64.546 17.8428 64.2794 19.2391 64.2794 20.6245C64.2794 23.4226 65.3708 26.1735 67.428 28.2306C69.4851 30.2857 72.236 31.3792 75.034 31.3792C76.4195 31.3792 77.8157 31.1109 79.1463 30.5615C83.164 28.8968 85.7832 24.976 85.7832 20.6264C85.7832 17.7753 84.6516 15.0391 82.6347 13.0241C80.6176 11.007 77.8833 9.87342 75.0324 9.87342ZM77.7774 12.617C78.0001 12.617 78.2028 12.7065 78.3505 12.8542C78.4965 13.0002 78.5859 13.2029 78.5859 13.4256C78.5859 13.9129 78.1882 14.2361 77.7721 14.2361C77.5712 14.2361 77.3705 14.1631 77.2041 13.9989C77.0399 13.8325 76.9651 13.63 76.9651 13.4311C76.9651 13.0149 77.2883 12.617 77.7774 12.617ZM72.0023 12.5605C72.2248 12.5605 72.4275 12.6516 72.5736 12.7977C72.7214 12.9437 72.8108 13.1464 72.8108 13.3708C72.8108 13.8582 72.4129 14.1813 71.995 14.1813C71.7959 14.1813 71.5952 14.1083 71.429 13.9422C71.2648 13.7779 71.1899 13.5753 71.1899 13.3763C71.1918 12.9602 71.513 12.5623 72.0023 12.5605ZM68.1143 17.0032C68.3389 17.0032 68.5416 17.0945 68.6875 17.2404C68.8335 17.3866 68.9247 17.5891 68.9247 17.8137C68.923 18.3009 68.5251 18.624 68.1088 18.624C67.9098 18.624 67.7073 18.551 67.5429 18.3849C67.3769 18.2206 67.3039 18.018 67.3039 17.8192C67.3039 17.4029 67.6271 17.0032 68.1143 17.0032ZM67.2657 24.1036C67.0995 23.9392 67.0265 23.7366 67.0265 23.5379C67.0265 23.1214 67.3495 22.7237 67.8368 22.7218C68.0613 22.7218 68.2641 22.813 68.4099 22.959C68.5561 23.1071 68.6473 23.3076 68.6473 23.5323C68.6456 24.0196 68.2477 24.3427 67.8313 24.3427C67.6324 24.3427 67.4299 24.2697 67.2657 24.1036ZM71.995 28.4513C71.7959 28.4513 71.5952 28.3785 71.429 28.2142C71.2648 28.0479 71.1899 27.8453 71.1899 27.6465C71.1918 27.2303 71.513 26.8325 72.0023 26.8325C72.2248 26.8325 72.4275 26.9218 72.5736 27.0678C72.7214 27.2157 72.8108 27.4183 72.8108 27.641C72.8108 28.1283 72.4129 28.4513 71.995 28.4513ZM77.8814 28.5627C77.6826 28.5627 77.48 28.4897 77.3159 28.3254C77.1513 28.1595 77.0766 27.9569 77.0766 27.7577C77.0766 27.3417 77.3995 26.9438 77.8888 26.942C78.1115 26.942 78.3142 27.033 78.46 27.1793C78.6061 27.327 78.6974 27.5295 78.6974 27.7522C78.6974 28.2396 78.2977 28.5627 77.8814 28.5627ZM82.1016 24.4539C81.9025 24.4539 81.6998 24.3809 81.5358 24.215C81.3715 24.0506 81.2966 23.8479 81.2966 23.6491C81.2966 23.233 81.6197 22.8351 82.1089 22.8331C82.3315 22.8331 82.534 22.9243 82.6802 23.0704C82.8279 23.2166 82.9172 23.4192 82.9172 23.6435C82.9172 24.1309 82.5193 24.4539 82.1016 24.4539ZM80.5347 22.4517L80.4948 22.4685C80.4117 22.7147 80.3123 22.9543 80.1977 23.1858L80.2142 23.2256L82.0396 27.6336L77.6325 25.8087L77.5914 25.7918C77.4759 25.8489 77.3577 25.9028 77.2371 25.9525C77.1175 26.0021 76.9968 26.0476 76.8753 26.0886L76.8585 26.1288L75.0324 30.5377L73.2055 26.1282L73.1887 26.0877C72.9446 26.0054 72.7053 25.9063 72.4728 25.7912L72.4321 25.8082L68.025 27.6336L69.8499 23.2269L69.8665 23.1868C69.7508 22.9538 69.6514 22.7138 69.5687 22.4688L69.5287 22.4522L65.1209 20.6264L69.5285 18.8015L69.5696 18.7845C69.6109 18.6627 69.6564 18.5415 69.706 18.4214C69.7558 18.3009 69.8095 18.1827 69.8669 18.0671L69.85 18.0263L68.025 13.619L72.4317 15.445L72.4719 15.4616C72.7037 15.3468 72.9432 15.2474 73.1894 15.1644L73.2061 15.1241L75.0324 10.7169L76.8585 15.1249L76.8753 15.1652C77.1205 15.2482 77.3595 15.3472 77.5912 15.4622L77.6318 15.4453L82.0396 13.619L80.2138 18.0279L80.197 18.0685C80.3116 18.3002 80.411 18.5395 80.4937 18.7844L80.5341 18.8012L84.9418 20.6264L80.5347 22.4517ZM82.9172 17.5909C82.9172 18.0782 82.5193 18.4013 82.1016 18.4013C81.9025 18.4013 81.6998 18.3282 81.5358 18.1622C81.3715 17.998 81.2966 17.7953 81.2966 17.5964C81.2966 17.1802 81.6197 16.7825 82.1089 16.7805C82.3315 16.7805 82.534 16.8718 82.6802 17.0178C82.8279 17.1637 82.9172 17.3664 82.9172 17.5909ZM79.4536 18.3537C78.9796 17.4332 78.2267 16.6801 77.3063 16.2057C77.0656 16.0817 76.8133 15.9766 76.5518 15.8928C76.073 15.7392 75.5622 15.6561 75.0324 15.6561C74.5075 15.6561 73.9965 15.7385 73.5138 15.8932C73.2527 15.977 72.9999 16.0818 72.7577 16.2064C71.8494 16.6737 71.0921 17.4171 70.6118 18.353C70.5498 18.4736 70.4922 18.5976 70.4398 18.7243C70.387 18.8513 70.3399 18.9798 70.2984 19.1091C70.1384 19.606 70.0601 20.1178 70.0601 20.6264C70.0601 21.1428 70.1407 21.6552 70.2979 22.1452C70.3808 22.4039 70.4851 22.6569 70.6106 22.9005C70.8425 23.3512 71.1458 23.7709 71.5167 24.1418C71.8879 24.5131 72.3074 24.8162 72.7582 25.0482C73.0015 25.1732 73.2539 25.2775 73.5127 25.3604C74.0027 25.5177 74.5154 25.5985 75.0324 25.5985C75.5412 25.5985 76.0533 25.5201 76.5508 25.3606C76.6797 25.3195 76.8075 25.2728 76.9341 25.2206C77.0613 25.168 77.1853 25.1101 77.3063 25.048C78.2423 24.5665 78.9852 23.8088 79.4526 22.9002C79.5771 22.6578 79.6822 22.4045 79.7658 22.1431C79.9201 21.6612 80.0027 21.1505 80.0027 20.6264C80.0027 20.0969 79.9194 19.5869 79.7663 19.1084C79.6825 18.8465 79.5778 18.5944 79.4536 18.3537ZM76.2973 23.6781C75.8875 23.8477 75.4577 23.9299 75.0317 23.9299C74.1721 23.9299 73.328 23.5948 72.6959 22.9627C71.7504 22.0173 71.4692 20.5972 71.9803 19.3633C72.4914 18.1292 73.6961 17.3244 75.0324 17.3244C75.9084 17.3244 76.7478 17.6711 77.3668 18.2919C77.9875 18.9105 78.336 19.7502 78.336 20.6264C78.336 21.9625 77.5292 23.1673 76.2973 23.6781ZM92.3031 22.0538V18.6588L93.8708 18.3379L93.9032 18.3314C93.7726 17.2544 93.551 16.1995 93.2452 15.1773L93.213 15.1838L91.6951 15.4917L91.6715 15.4363L91.6698 15.437L90.3792 12.3961L90.3804 12.3956L90.3682 12.3671L91.6584 11.477L91.6854 11.4586C91.1213 10.4347 90.4644 9.46473 89.7227 8.56141L89.6952 8.5793L88.304 9.48846L85.9145 7.0772L86.8056 5.74215L86.8237 5.7154C85.9406 5.01688 84.9901 4.39293 83.9787 3.85403L83.9608 3.88095L83.08 5.21901L79.9275 3.95784L80.2143 2.36999L80.22 2.3381C79.1243 2.02684 78.0132 1.81762 76.8989 1.70761L76.8923 1.73985L76.5616 3.35551H73.1667L72.8427 1.77599L72.8362 1.74357C71.7637 1.86847 70.703 2.08442 69.6674 2.38895L69.6741 2.42119L69.998 3.96705L66.8804 5.31592L65.939 3.96847L65.92 3.94101C64.8606 4.51942 63.8492 5.20271 62.9027 5.98734L62.9213 6.01515L63.8067 7.33815L61.421 9.75314L60.1102 8.89995L60.082 8.88171C59.3642 9.79459 58.7383 10.7633 58.2068 11.7734L58.2348 11.7917L59.5575 12.6645L58.2943 15.8166L56.7488 15.536L56.7162 15.5302C56.4484 16.4936 56.2567 17.4771 56.1431 18.4704L56.1754 18.4772L57.7595 18.801V22.196L56.1479 22.5257L56.1153 22.5324C56.2393 23.7642 56.4851 24.9925 56.8557 26.1987L56.8879 26.1926L58.4896 25.8905L59.7764 29.0319L58.474 29.9041L58.4472 29.9222C58.9208 30.7696 59.4526 31.5692 60.0351 32.3175L60.0618 32.2995L61.4064 31.3938L63.8285 33.7722L62.8919 35.2196L62.8742 35.2469C63.8707 36.0742 64.9458 36.7939 66.0793 37.3982L66.097 37.3709L66.9388 36.0664L70.1021 37.2986L69.8314 38.8787L69.8259 38.9113C70.8169 39.1941 71.8322 39.3971 72.8622 39.5164L72.8689 39.4841L73.1942 37.8973H76.5873L76.9191 39.5156L76.9255 39.5478C78.2035 39.4194 79.4832 39.1589 80.7464 38.7591L80.7396 38.7274L80.4239 37.2328L80.4744 37.211L80.4551 37.1654L83.4962 35.8749L83.5047 35.895L83.538 35.8803L84.4115 37.1247L84.4299 37.151C85.3129 36.6491 86.1475 36.0811 86.9277 35.4552L86.9101 35.4281L85.9804 33.9966L87.5188 32.4825L88.335 31.6659L88.3416 31.6725L88.4007 31.6145L89.7949 32.5513L89.8219 32.5695C90.5774 31.6337 91.2421 30.6287 91.8081 29.5679L91.7808 29.5501L90.4541 28.6813L91.7065 25.5255L93.2899 25.807L93.3223 25.8127C93.6366 24.7047 93.8522 23.5605 93.9608 22.3929L93.9283 22.3864L92.3031 22.0538ZM79.4494 31.2933C78.0221 31.8847 76.5217 32.1733 75.034 32.1733C72.0296 32.1733 69.0762 30.9976 66.8676 28.7908C64.659 26.5824 63.4854 23.6289 63.4854 20.6245C63.4854 19.1369 63.7738 17.6366 64.3651 16.2092C66.1521 11.8942 70.3613 9.08136 75.0324 9.08136C78.0933 9.08136 81.03 10.297 83.1948 12.4636C85.3616 14.6285 86.5773 17.5654 86.5773 20.6264C86.5773 25.2973 83.7646 29.5064 79.4494 31.2933ZM103.638 2.3606V2.12888L103.735 2.24386L103.828 2.13066V2.35352L108.9 8.38779H109.052L109.006 8.44449H110.695L115.607 2.41534V2.18363L115.701 2.29683L115.794 2.18539V2.40631L120.867 8.44254H122.534L122.572 8.39683L122.566 8.38975H122.577L127.489 2.3606V2.12888L127.584 2.24386L127.677 2.13066V2.35352L132.752 8.38779H134.27L139.226 2.30586V2.07219L139.321 2.18735L139.414 2.07414V2.29683L144.486 8.33306H146.229L139.414 0.000534058V0.00248337L133.535 7.21786L127.677 0.0554504V0.0572243L121.727 7.36189L115.794 0.110195V0.111965L109.846 7.41309L103.828 0.0554504V0.0572243L97.0397 8.38975H98.7282L103.638 2.3606ZM6.59836 2.72218V2.48851L6.69511 2.60349L6.78638 2.49028V2.71297L11.8607 8.74742H12.0123L11.9666 8.80394H13.6549L18.565 2.77692V2.54325L18.6618 2.65822L18.7548 2.54502V2.76771L23.8273 8.80216H25.4938L25.532 8.75646L25.5266 8.74919H25.5377L30.4478 2.72218V2.48851L30.5445 2.60349L30.6375 2.49028V2.71297L35.71 8.74742H37.2303L42.1842 2.66549V2.43377L42.2811 2.54874L42.3741 2.43377V2.65822L47.4466 8.69268H49.1898L42.3741 0.360161V0.361931L36.4948 7.57908L30.6375 0.416676L24.6852 7.72151L18.7548 0.471413L12.8061 7.77448L6.78638 0.416676L0 8.74919H1.68838L6.59836 2.72218ZM51.0588 36.4517C50.944 36.3512 50.6701 36.1924 50.2375 35.9716C49.9473 35.8201 49.8011 35.6704 49.8011 35.5225C49.8011 35.3144 49.9399 35.1758 50.2155 35.1064C50.4509 35.081 50.6828 35.0516 50.9128 35.0225C50.9803 35.0133 51.015 34.9897 51.015 34.9531C51.015 34.9075 50.9822 34.7724 50.9146 34.548C50.8488 34.3251 50.8031 34.1918 50.7796 34.148C50.7578 34.1042 50.7192 34.0843 50.6701 34.0843C50.1078 34.0843 49.6442 34.2065 49.2773 34.4549C48.8704 34.7303 48.6677 35.1174 48.6677 35.6101C48.6677 35.9898 48.8174 36.2965 49.1148 36.5301C49.188 36.5868 49.4654 36.7365 49.9526 36.979C50.2502 37.1306 50.3999 37.2986 50.3999 37.4793C50.3999 37.8608 50.0605 38.0523 49.3795 38.0523C49.3832 38.0523 49.3285 38.047 49.2171 38.0379C49.1742 38.0325 49.1365 38.0297 49.1031 38.0297C49.0702 38.0297 49.042 38.0325 49.0181 38.0379C48.9524 38.0506 48.9214 38.0779 48.9214 38.1219C48.9214 38.1913 48.9306 38.297 48.9506 38.4432C48.9706 38.5873 48.9798 38.6968 48.9798 38.7679C48.9798 38.903 49.0108 38.9833 49.0729 39.0108C49.1003 39.02 49.2225 39.0252 49.4399 39.0252C49.9964 39.0252 50.4692 38.8902 50.8579 38.6201C51.2869 38.3245 51.5004 37.9302 51.5004 37.4392C51.5004 37.0375 51.3527 36.7073 51.0588 36.4517ZM3.98088 28.2434C6.64763 30.2165 10.0591 31.204 14.2208 31.204C16.8054 31.204 19.505 30.8114 22.3179 30.0248C22.6008 30.1014 23.3509 30.2456 24.5703 30.4575C25.7877 30.6672 26.525 30.7732 26.7806 30.7732C27.1858 30.7732 27.3739 30.6436 27.3465 30.3845L27.3263 30.2274C27.071 27.7633 26.9431 25.9143 26.9431 24.6766C26.9431 24.2167 26.9796 23.5231 27.0545 22.5922C27.1273 21.6631 27.1658 20.9696 27.1658 20.5097C27.1658 20.192 26.9961 20.0349 26.6602 20.0349C26.2293 20.0349 25.5832 20.0551 24.7217 20.0989C23.8602 20.1426 23.2141 20.163 22.7833 20.163C22.378 20.163 21.7829 20.1371 20.9963 20.0842C20.2078 20.0314 19.6182 20.0057 19.2276 20.0057C19.0797 20.0057 18.972 20.0149 18.9045 20.0349C18.731 20.0733 18.6435 20.1828 18.6435 20.3653C18.6435 20.9788 18.731 21.7836 18.9045 22.7801C19.1071 24.0743 19.2276 24.8791 19.2694 25.195C17.572 25.6843 16.0369 25.9289 14.6644 25.9289C12.4959 25.9289 10.8203 25.458 9.63568 24.5198C8.49123 23.6089 7.91998 22.3732 7.91998 20.8107C7.91998 19.3341 8.47116 18.1039 9.57548 17.1164C10.7601 16.0431 12.3626 15.5064 14.3814 15.5064C15.6209 15.5064 16.7506 15.7017 17.7746 16.096C18.4609 16.3533 19.1344 16.7184 19.7934 17.1875C20.332 17.5818 20.6422 17.7771 20.7224 17.7771C21.073 17.7771 21.8506 17.2442 23.0552 16.1745C24.2599 15.1066 24.8622 14.4185 24.8622 14.1119C24.8622 14.0152 24.749 13.8527 24.5191 13.6227C23.4019 12.5111 21.867 11.6478 19.9157 11.0343C18.1106 10.4797 16.1848 10.202 14.1386 10.202C9.92591 10.202 6.49795 11.237 3.8604 13.3069C1.3014 15.3093 0.023736 17.8302 0.023736 20.8674C0.023736 23.8389 1.34154 26.2974 3.98088 28.2434ZM12.4302 32.0673C12.4302 31.9979 12.3992 31.9633 12.339 31.9633C12.2093 31.9633 12.0123 31.9742 11.7512 31.9962C11.4884 32.018 11.2894 32.029 11.1562 32.029C11.0996 32.029 11.0704 32.0673 11.0704 32.1456C11.0704 32.259 11.0758 32.4251 11.0867 32.646C11.0978 32.8669 11.1032 33.0311 11.1032 33.1406V34.7414C11.1032 34.7779 11.0886 34.7996 11.0594 34.8107C10.9079 34.6848 10.7546 34.5606 10.6013 34.4402C10.2617 34.1956 9.86751 34.0732 9.41299 34.0732C8.66091 34.0732 8.05132 34.3251 7.584 34.8253C7.13681 35.3035 6.91419 35.8931 6.91419 36.5941C6.91419 37.2695 7.13502 37.8461 7.57853 38.3245C8.04592 38.8319 8.64277 39.0857 9.37092 39.0857C10.0099 39.0857 10.5775 38.841 11.0704 38.3536C11.1032 38.3206 11.1306 38.2987 11.1507 38.2897C11.169 38.2934 11.1835 38.4082 11.1926 38.6385C11.1999 38.8665 11.231 38.9814 11.2802 38.9814C11.3351 38.9814 11.4135 38.9762 11.5175 38.967C11.6234 38.956 11.7019 38.9523 11.7566 38.9523C11.7456 38.9523 11.8151 38.956 11.9666 38.967C12.0296 38.9696 12.0853 38.971 12.1339 38.971C12.1824 38.971 12.224 38.9696 12.2586 38.967C12.359 38.956 12.4064 38.9359 12.4028 38.9013L12.3974 38.8373C12.3371 38.1693 12.3061 37.1837 12.3061 35.8822C12.3061 35.4606 12.3262 34.8253 12.3681 33.9766C12.4102 33.1297 12.4302 32.4925 12.4302 32.0673ZM10.6925 37.6125C10.4114 37.9247 10.0554 38.0817 9.62461 38.0817C9.19576 38.0817 8.83619 37.9264 8.54417 37.6162C8.25941 37.3241 8.11878 36.979 8.11878 36.5849C8.11878 36.1687 8.25393 35.8128 8.52769 35.517C8.81612 35.2014 9.18117 35.0424 9.62461 35.0424C10.0445 35.0424 10.3968 35.2032 10.6816 35.5225C10.9481 35.8218 11.0813 36.1687 11.0813 36.5646C11.0813 36.97 10.9518 37.3187 10.6925 37.6125ZM48.2186 36.3074C48.2186 35.6759 47.9979 35.1374 47.5562 34.6957C47.1016 34.2413 46.5376 34.015 45.8603 34.015C45.134 34.015 44.5205 34.2759 44.0205 34.7996C43.5459 35.3035 43.3087 35.895 43.3087 36.5738C43.3087 37.335 43.5569 37.9449 44.0533 38.4011C44.5499 38.8575 45.2142 39.0857 46.0502 39.0857C46.877 39.0857 47.5562 38.8281 48.0854 38.3134C48.1421 38.2587 48.1711 38.2203 48.1711 38.2003C48.1711 38.1838 48.1074 38.0653 47.9814 37.8425C47.8554 37.6198 47.7879 37.5049 47.7789 37.4994C47.7697 37.492 47.7514 37.4885 47.7222 37.4885C47.6657 37.5323 47.6072 37.5743 47.5507 37.6162C47.076 37.9539 46.5541 38.1219 45.9845 38.1219C45.6543 38.1219 45.3439 38.0233 45.0573 37.8297C44.7543 37.6254 44.5789 37.379 44.5334 37.0887C46.6051 36.9461 47.7185 36.8496 47.8737 36.7967C48.1036 36.7145 48.2186 36.552 48.2186 36.3074ZM46.6215 36.1049C45.8805 36.2035 45.2435 36.2526 44.7104 36.2526C44.5809 36.2526 44.5171 36.218 44.5171 36.1486C44.5171 35.8456 44.6447 35.5737 44.9021 35.3291C45.1595 35.0862 45.4534 34.9641 45.7855 34.9641C46.0795 34.9641 46.3459 35.068 46.5813 35.2798C46.8169 35.4896 46.9355 35.7325 46.9355 36.0062C46.9355 36.0465 46.8295 36.0794 46.6215 36.1049ZM23.5536 36.3074C23.5536 35.6759 23.3327 35.1374 22.8908 34.6957C22.4364 34.2413 21.8724 34.015 21.1953 34.015C20.4688 34.015 19.8554 34.2759 19.3553 34.7996C18.8807 35.3035 18.6435 35.895 18.6435 36.5738C18.6435 37.335 18.8917 37.9449 19.3881 38.4011C19.8847 38.8575 20.5492 39.0857 21.385 39.0857C22.212 39.0857 22.8908 38.8281 23.4184 38.3134C23.4769 38.2587 23.5061 38.2203 23.5061 38.2003C23.5061 38.1838 23.4421 38.0653 23.3162 37.8425C23.1904 37.6198 23.1227 37.5049 23.1137 37.4994C23.1047 37.492 23.0862 37.4885 23.0572 37.4885C23.0005 37.5323 22.942 37.5743 22.8853 37.6162C22.409 37.9539 21.8888 38.1219 21.3193 38.1219C20.9891 38.1219 20.6787 38.0233 20.3922 37.8297C20.0891 37.6254 19.9139 37.379 19.8684 37.0887C21.9399 36.9461 23.0535 36.8496 23.2085 36.7967C23.4386 36.7145 23.5536 36.552 23.5536 36.3074ZM21.9565 36.1049C21.2153 36.2035 20.5782 36.2526 20.0454 36.2526C19.9157 36.2526 19.8519 36.218 19.8519 36.1486C19.8519 35.8456 19.9796 35.5737 20.2369 35.3291C20.4944 35.0862 20.7882 34.9641 21.1203 34.9641C21.4144 34.9641 21.6809 35.068 21.9163 35.2798C22.1517 35.4896 22.2704 35.7325 22.2704 36.0062C22.2704 36.0465 22.1645 36.0794 21.9565 36.1049ZM5.92122 34.3307C5.65472 34.2814 5.47397 34.2558 5.37723 34.2558C5.31522 34.2558 5.26409 34.3597 5.22574 34.5679C5.18561 34.7762 5.15454 34.8801 5.13268 34.8801L5.10161 34.8637C4.97205 34.7395 4.87524 34.6446 4.81504 34.577C4.40439 34.2284 3.92435 34.0532 3.37315 34.0532C2.59367 34.0532 1.96393 34.3033 1.48576 34.7996C1.02764 35.278 0.799484 35.8822 0.799484 36.6142C0.799484 37.264 1.02577 37.8316 1.48029 38.319C1.95847 38.8299 2.54621 39.0857 3.24347 39.0857C3.5283 39.0857 3.81299 39.018 4.0977 38.8865C4.28031 38.8044 4.47928 38.684 4.69103 38.5269C4.86431 38.3973 4.96112 38.3336 4.98305 38.3336C5.01399 38.3336 5.04866 38.4485 5.0852 38.6785C5.11987 38.9103 5.17281 39.0252 5.24222 39.0252C5.33889 39.0252 5.48671 39.0144 5.6876 38.9944C5.88655 38.9724 6.03617 38.9615 6.13471 38.9615C6.23331 38.9615 6.28079 38.9139 6.27705 38.8172L6.27167 38.7497C6.18219 37.3024 6.13664 36.563 6.13664 36.5301C6.13664 35.9825 6.20779 35.3327 6.34827 34.577C6.35927 34.5316 6.36473 34.5021 6.36473 34.4895C6.36473 34.442 6.21693 34.3909 5.92122 34.3307ZM4.58874 37.5833C4.30398 37.8954 3.95174 38.0523 3.53004 38.0523C3.09925 38.0523 2.73968 37.899 2.45139 37.5925C2.1739 37.2986 2.03515 36.9536 2.03515 36.554C2.03515 36.1523 2.1739 35.8036 2.45139 35.5061C2.73968 35.1978 3.09925 35.0424 3.53004 35.0424C3.96269 35.0424 4.31679 35.1995 4.59422 35.5118C4.85711 35.8019 4.98846 36.1486 4.98846 36.554C4.98846 36.9461 4.85524 37.2894 4.58874 37.5833ZM17.8823 34.2905C17.7655 34.2905 17.594 34.2978 17.364 34.3087C17.134 34.3198 16.9587 34.3251 16.8401 34.3251C16.7854 34.3251 16.7598 34.3507 16.7598 34.4001C16.7598 34.5096 16.7707 34.672 16.7944 34.8891C16.8182 35.1064 16.8292 35.2706 16.8292 35.3784C16.8292 35.78 16.8145 36.063 16.7854 36.2291C16.7652 36.3495 16.5991 36.6451 16.2889 37.1124C15.9768 37.5908 15.7796 37.8297 15.7011 37.8297C15.619 37.8297 15.4036 37.5852 15.0568 37.0977C14.7081 36.6105 14.5256 36.3038 14.5091 36.1797C14.4727 35.9296 14.4545 35.6521 14.4545 35.3492C14.4545 35.2433 14.4617 35.0883 14.4763 34.8819C14.491 34.6756 14.4983 34.5205 14.4983 34.4146C14.4983 34.3489 14.4654 34.316 14.3997 34.316C14.281 34.316 14.104 34.3106 13.8685 34.3014C13.633 34.2905 13.456 34.2869 13.3374 34.2869C13.2589 34.2869 13.2187 34.3234 13.2187 34.3945C13.2187 34.5295 13.2151 34.7322 13.2077 35.0023C13.2005 35.2725 13.1968 35.4751 13.1968 35.6101C13.1968 36.0465 13.2406 36.3659 13.3265 36.5738C13.3921 36.7254 13.6952 37.1489 14.2391 37.8444C14.7957 38.5598 15.1261 38.9321 15.2265 38.9615C15.3014 38.9814 15.4602 38.9906 15.7011 38.9906C15.953 38.9906 16.1045 38.9814 16.1538 38.9615C16.2596 38.9211 16.5827 38.5342 17.1267 37.8006C17.6542 37.0813 17.9462 36.6487 18.001 36.501C18.032 36.4244 18.0485 36.1541 18.0485 35.6905C18.0485 34.7576 17.9937 34.2905 17.8823 34.2905ZM33.0323 37.9631C32.9263 37.9631 32.7676 37.9849 32.5522 38.0305C32.335 38.0743 32.1725 38.0963 32.0593 38.0963C31.7911 38.0963 31.6122 38.0103 31.5265 37.8388C31.468 37.7276 31.4388 37.5305 31.4388 37.2475V36.5102C31.4388 36.0884 31.4478 35.7616 31.4662 35.5261C31.4808 35.3382 31.5025 35.2452 31.5318 35.2452C31.6742 35.2452 31.8934 35.2542 32.1835 35.2725C32.4755 35.2908 32.6929 35.3 32.8369 35.3C32.9373 35.3 32.9883 35.2689 32.9883 35.2049C32.9883 35.1558 32.9866 35.081 32.983 34.9787C32.9793 34.8763 32.9774 34.7996 32.9774 34.7506C32.9774 34.7085 32.9848 34.6428 32.9958 34.5551C33.0085 34.4675 33.0158 34.4055 33.0158 34.3653C33.0158 34.3251 32.9848 34.307 32.9246 34.307H31.6287C31.5318 34.307 31.4825 34.2577 31.4825 34.1626C31.4825 34.0186 31.4935 33.7995 31.5172 33.5112C31.541 33.221 31.552 33.0037 31.552 32.8577C31.552 32.7956 31.5119 32.7591 31.4297 32.75C30.7852 32.6479 30.4458 32.5967 30.4148 32.5967C30.3126 32.5967 30.2633 32.7171 30.2633 32.9562C30.2633 33.093 30.2669 33.2938 30.2761 33.5659C30.2851 33.8359 30.2908 34.0368 30.2908 34.1682C30.2908 34.2961 30.2066 34.3635 30.0424 34.3708C29.9549 34.3745 29.8672 34.3745 29.7778 34.3745C29.6718 34.3926 29.6153 34.4402 29.6043 34.5186C29.5898 34.6246 29.5825 34.725 29.5825 34.8199C29.5825 35.0735 29.6208 35.2086 29.6957 35.2251C29.8251 35.2288 29.9565 35.2305 30.0899 35.2305C30.2378 35.2396 30.3106 35.3126 30.3106 35.4478C30.3106 35.727 30.3036 36.1486 30.2908 36.7109C30.2761 37.2713 30.2687 37.6928 30.2687 37.9723C30.2687 38.6713 30.6887 39.02 31.5318 39.02C32.1651 39.02 32.6289 38.956 32.9246 38.8281C32.9774 38.8044 33.0123 38.7826 33.0268 38.7589C33.0341 38.7459 33.0395 38.7096 33.0431 38.6494C33.0468 38.6037 33.056 38.5034 33.0741 38.348C33.089 38.2242 33.0962 38.1236 33.0962 38.0523C33.0962 37.9921 33.0741 37.9631 33.0323 37.9631ZM42.6332 34.2175C42.4143 34.2175 42.2336 34.2376 42.0931 34.2759C41.925 34.3198 41.759 34.3853 41.5965 34.4748C41.4486 34.5606 41.3026 34.6446 41.1549 34.7303L41.1274 34.7414C41.0799 34.7414 41.0489 34.6446 41.0305 34.4494C41.0126 34.258 40.9749 34.1596 40.9194 34.1573C40.9334 34.1596 40.7538 34.194 40.3773 34.2558C40.1364 34.2831 39.9483 34.3033 39.8168 34.316C39.7693 34.3324 39.7456 34.3597 39.7456 34.4001C39.7456 34.4129 39.7493 34.433 39.7566 34.4603C39.9228 34.9531 40.005 35.6066 40.005 36.4206C40.005 36.6908 40.0012 37.0942 39.9922 37.6326C39.9828 38.1693 39.9775 38.5709 39.9775 38.8373C39.9775 38.9194 40.0195 38.9615 40.1017 38.9615C40.2129 38.9615 40.3827 38.9632 40.6091 38.967C40.8353 38.9688 41.005 38.9706 41.1164 38.9706C41.1986 38.9706 41.2406 38.9269 41.2406 38.8373C41.2406 38.6528 41.2334 38.3736 41.2169 37.9977C41.2004 37.6215 41.1931 37.3423 41.1931 37.1579V36.6142C41.1931 36.1669 41.2296 35.8711 41.3063 35.7287C41.4323 35.4952 41.7205 35.3784 42.1751 35.3784C42.2536 35.3784 42.3703 35.3856 42.5218 35.4002C42.6752 35.4149 42.7904 35.4222 42.8651 35.4222C42.9271 35.4222 42.9617 35.3856 42.9728 35.309C43.0276 35.0133 43.0549 34.683 43.0549 34.3215C43.0549 34.2523 42.9144 34.2175 42.6332 34.2175ZM38.8658 34.4784C38.8658 34.3635 38.8129 34.307 38.7089 34.307H37.8181C37.6722 34.307 37.5974 34.3873 37.5974 34.548C37.5974 36.0409 37.5882 36.9098 37.57 37.1579C37.5607 37.3551 37.391 37.5613 37.0626 37.7748C36.754 37.9795 36.4858 38.0817 36.2594 38.0817C35.7263 38.0817 35.3833 37.9028 35.2281 37.5487C35.1387 37.3496 35.093 36.9626 35.093 36.386C35.093 36.1486 35.0984 35.9313 35.1094 35.7342C35.1132 35.6028 35.1404 35.3766 35.1897 35.0571C35.2372 34.7576 35.2609 34.5424 35.2609 34.4146C35.2609 34.3433 35.2244 34.307 35.1532 34.307C35.0492 34.307 34.8922 34.3051 34.6823 34.3014C34.4743 34.2978 34.3174 34.2961 34.2132 34.2961C34.1275 34.2961 34.0671 34.3597 34.036 34.4895C33.9028 35.0187 33.8353 35.6668 33.8353 36.4316C33.8353 37.2785 33.9158 37.8644 34.0727 38.1913C34.3282 38.7169 34.854 38.9814 35.6498 38.9814C36.2356 38.9814 36.8289 38.7425 37.4312 38.2641C37.466 38.235 37.4932 38.2203 37.5115 38.2203C37.5443 38.2203 37.5645 38.3426 37.5735 38.5908C37.5827 38.8373 37.6082 38.9615 37.6522 38.9615C38.353 38.9615 38.7181 38.9577 38.7472 38.9523C38.8148 38.9321 38.8494 38.8883 38.8494 38.8225C38.8494 38.5817 38.8421 38.2221 38.8258 37.744C38.8093 37.264 38.8019 36.9043 38.8019 36.6634C38.8019 36.4188 38.8111 36.0555 38.8331 35.5681C38.8549 35.0828 38.8658 34.7194 38.8658 34.4784ZM29.044 36.8859C29.044 36.7803 29.0459 36.6232 29.0514 36.4114C29.0569 36.1998 29.0587 36.0446 29.0587 35.9424C29.0587 35.3528 28.9673 34.9257 28.7848 34.6611C28.5366 34.3033 28.073 34.1226 27.3975 34.1226C27.0435 34.1226 26.6784 34.2284 26.3005 34.4402C25.9957 34.641 25.7494 34.8089 25.5613 34.9438C25.4975 34.7359 25.4553 34.5295 25.4373 34.3251C25.4298 34.2741 25.4171 34.2468 25.3953 34.2468C25.377 34.2468 25.1744 34.2759 24.7873 34.3324C24.4005 34.3909 24.1942 34.422 24.1687 34.4255C24.1229 34.4385 24.0992 34.4603 24.0992 34.4931C24.0992 34.5077 24.1049 34.5277 24.1157 34.5589C24.2783 35.1521 24.3586 35.7983 24.3586 36.501C24.3586 36.7638 24.3529 37.1562 24.3458 37.6764C24.3364 38.1966 24.3311 38.5873 24.3311 38.8483C24.3311 38.923 24.3694 38.9615 24.4443 38.9615C24.5593 38.9615 24.7325 38.9632 24.9627 38.967C25.1926 38.9688 25.366 38.9706 25.481 38.9706C25.5485 38.9706 25.5832 38.9304 25.5832 38.8483V35.8822C25.5832 35.7308 25.7531 35.5573 26.0906 35.3636C26.412 35.1794 26.6619 35.0862 26.8409 35.0862C27.2297 35.0862 27.4962 35.1794 27.6404 35.3636C27.7591 35.5191 27.8174 35.7836 27.8174 36.1595C27.8174 36.291 27.8193 36.488 27.8228 36.7491C27.8266 37.0119 27.8283 37.2093 27.8283 37.3406C27.8283 37.5049 27.8228 37.7513 27.8119 38.0817C27.8009 38.4103 27.7954 38.6567 27.7954 38.8172C27.7954 38.9139 27.8283 38.9615 27.8941 38.9615C28.0128 38.9615 28.1897 38.9632 28.4252 38.967C28.6606 38.9688 28.8378 38.9706 28.9565 38.9706C29.0295 38.9706 29.064 38.9359 29.064 38.8629C29.064 38.6419 29.0605 38.3117 29.0532 37.8734C29.0459 37.4354 29.044 37.1069 29.044 36.8859ZM135.349 34.5589C135.148 34.5589 134.984 34.5753 134.855 34.6099C134.701 34.6464 134.549 34.7049 134.4 34.7815C134.267 34.8545 134.131 34.9295 133.997 35.0023L133.971 35.0115C133.929 35.0115 133.9 34.9275 133.883 34.7597C133.867 34.5936 133.833 34.5098 133.781 34.5077C133.794 34.5096 133.629 34.5371 133.285 34.5935C133.065 34.6154 132.894 34.6319 132.772 34.6446C132.73 34.6592 132.708 34.683 132.708 34.7158C132.708 34.7286 132.711 34.745 132.717 34.7687C132.868 35.1959 132.945 35.7616 132.945 36.4644C132.945 36.698 132.941 37.0485 132.932 37.5121C132.925 37.9774 132.919 38.3245 132.919 38.5563C132.919 38.6274 132.958 38.662 133.034 38.662C133.135 38.662 133.29 38.6639 133.498 38.6675C133.704 38.6693 133.86 38.6713 133.962 38.6713C134.037 38.6713 134.075 38.6329 134.075 38.5563C134.075 38.3956 134.068 38.1545 134.053 37.8297C134.038 37.5029 134.031 37.262 134.031 37.1015V36.6323C134.031 36.2453 134.066 35.9898 134.135 35.8676C134.25 35.6651 134.515 35.5628 134.929 35.5628C135 35.5628 135.108 35.5701 135.247 35.5827C135.387 35.5957 135.491 35.6011 135.56 35.6011C135.617 35.6011 135.65 35.5701 135.659 35.5026C135.709 35.2469 135.734 34.9623 135.734 34.6482C135.734 34.588 135.604 34.5589 135.349 34.5589ZM137.441 34.6264C137.379 34.6264 137.286 34.6338 137.162 34.6482C137.039 34.6628 136.946 34.6701 136.884 34.6701C136.82 34.6701 136.729 34.6628 136.605 34.6482C136.481 34.6338 136.389 34.6264 136.331 34.6264C136.262 34.6264 136.227 34.652 136.227 34.6995C136.227 34.922 136.245 35.2561 136.284 35.6997C136.322 36.1451 136.34 36.479 136.34 36.6998C136.34 36.9007 136.335 37.1963 136.323 37.5925C136.311 37.9868 136.305 38.2824 136.305 38.4796C136.305 38.5965 136.34 38.6549 136.41 38.6549H137.373C137.432 38.6549 137.461 38.6238 137.461 38.5653C137.461 38.359 137.455 38.0489 137.446 37.6346C137.437 37.2202 137.432 36.9079 137.432 36.6998C137.432 36.479 137.446 36.1451 137.479 35.7014C137.51 35.2597 137.525 34.9275 137.525 34.7085C137.525 34.6537 137.497 34.6264 137.441 34.6264ZM132.146 37.7987C132.049 37.7987 131.903 37.8188 131.706 37.857C131.509 37.8954 131.359 37.9154 131.257 37.9154C131.01 37.9154 130.848 37.8406 130.768 37.6928C130.716 37.5962 130.689 37.4245 130.689 37.1799V36.543C130.689 36.1778 130.698 35.895 130.715 35.6924C130.727 35.5299 130.747 35.4478 130.773 35.4478C130.904 35.4478 131.103 35.4551 131.37 35.4715C131.636 35.4861 131.835 35.4952 131.967 35.4952C132.06 35.4952 132.105 35.4676 132.105 35.413C132.105 35.3711 132.104 35.3054 132.1 35.216C132.098 35.1282 132.096 35.0627 132.096 35.0208C132.096 34.9841 132.102 34.9275 132.113 34.8507C132.126 34.7762 132.131 34.7213 132.131 34.6866C132.131 34.652 132.102 34.6355 132.047 34.6355H130.862C130.773 34.6355 130.729 34.5935 130.729 34.5113C130.729 34.3853 130.74 34.1975 130.76 33.9475C130.782 33.6956 130.793 33.5074 130.793 33.3833C130.793 33.3285 130.755 33.2977 130.68 33.2885C130.09 33.2008 129.782 33.157 129.751 33.157C129.66 33.157 129.614 33.261 129.614 33.4691C129.614 33.5859 129.618 33.7614 129.625 33.9947C129.634 34.2284 129.638 34.4018 129.638 34.5151C129.638 34.6264 129.563 34.6848 129.411 34.6902C129.333 34.694 129.251 34.6957 129.169 34.6957C129.074 34.7104 129.021 34.7506 129.012 34.8199C128.999 34.9111 128.992 34.9969 128.992 35.0789C128.992 35.3 129.026 35.4166 129.096 35.4313C129.214 35.433 129.333 35.435 129.455 35.435C129.59 35.4441 129.658 35.5061 129.658 35.623C129.658 35.8658 129.651 36.2291 129.638 36.7163C129.625 37.2018 129.618 37.5652 129.618 37.8077C129.618 38.412 130.003 38.7132 130.773 38.7132C131.352 38.7132 131.777 38.6584 132.047 38.5471C132.096 38.5269 132.127 38.507 132.14 38.4869C132.147 38.4758 132.151 38.4449 132.155 38.3938C132.158 38.3536 132.168 38.266 132.184 38.1328C132.198 38.025 132.204 37.9392 132.204 37.8754C132.204 37.8242 132.184 37.7987 132.146 37.7987ZM126.049 32.6989C126.049 32.6387 126.022 32.6093 125.965 32.6093C125.848 32.6093 125.668 32.6184 125.428 32.6366C125.188 32.6552 125.007 32.6643 124.885 32.6643C124.832 32.6643 124.806 32.6989 124.806 32.7683C124.806 32.8648 124.812 33.0093 124.821 33.1991C124.832 33.3908 124.835 33.5331 124.835 33.6262V35.0115C124.835 35.0424 124.822 35.0627 124.797 35.0718C124.658 34.9641 124.518 34.8562 124.377 34.7506C124.067 34.5406 123.705 34.4347 123.291 34.4347C122.603 34.4347 122.045 34.652 121.617 35.0845C121.21 35.4971 121.006 36.008 121.006 36.6142C121.006 37.2 121.209 37.6982 121.612 38.1108C122.041 38.5508 122.586 38.7698 123.251 38.7698C123.837 38.7698 124.355 38.558 124.806 38.1364C124.835 38.1091 124.861 38.089 124.881 38.0817C124.897 38.0835 124.908 38.1838 124.917 38.3828C124.925 38.58 124.952 38.6803 124.998 38.6803C125.047 38.6803 125.12 38.6748 125.215 38.6675C125.312 38.6584 125.383 38.6549 125.432 38.6549C125.423 38.6549 125.487 38.6584 125.626 38.6675C125.683 38.6703 125.734 38.6717 125.779 38.6717C125.823 38.6717 125.861 38.6703 125.892 38.6675C125.983 38.6584 126.029 38.6402 126.025 38.611L126.02 38.5563C125.965 37.9774 125.936 37.1252 125.936 35.999C125.936 35.6339 125.956 35.0845 125.992 34.3507C126.031 33.6168 126.049 33.0657 126.049 32.6989ZM124.461 37.4956C124.204 37.7658 123.879 37.9008 123.483 37.9008C123.092 37.9008 122.762 37.7678 122.497 37.4994C122.236 37.2456 122.106 36.9482 122.106 36.6067C122.106 36.2472 122.231 35.9388 122.482 35.6832C122.745 35.4095 123.078 35.2725 123.483 35.2725C123.868 35.2725 124.191 35.4113 124.45 35.6869C124.695 35.946 124.815 36.2472 124.815 36.5886C124.815 36.9391 124.697 37.242 124.461 37.4956ZM137.36 33.1643C137.227 33.0657 137.068 33.0147 136.884 33.0147C136.7 33.0147 136.541 33.0639 136.41 33.1605C136.269 33.2629 136.198 33.3925 136.198 33.5494C136.198 33.8999 136.426 34.0752 136.884 34.0752C137.335 34.0752 137.559 33.8999 137.559 33.5494C137.559 33.3925 137.494 33.2648 137.36 33.1643ZM141.142 34.4438C140.673 34.4438 140.206 34.6464 139.746 35.0554C139.717 35.0828 139.689 35.1026 139.667 35.1139C139.648 35.0919 139.636 35.068 139.636 35.0462C139.631 34.9348 139.622 34.8216 139.613 34.7085C139.596 34.5369 139.56 34.4528 139.505 34.4528C139.465 34.4528 139.284 34.4767 138.961 34.5277C138.722 34.5551 138.538 34.5698 138.414 34.5753C138.381 34.5845 138.364 34.6044 138.364 34.6355C138.364 34.6464 138.368 34.6701 138.374 34.7049C138.472 35.2908 138.521 35.9187 138.521 36.5886C138.521 36.9536 138.52 37.5011 138.512 38.2312C138.505 38.9598 138.501 39.5071 138.501 39.8723C138.501 39.9379 138.54 39.9746 138.616 39.9836C138.708 39.9945 139.007 40 139.514 40C139.589 40 139.627 39.9543 139.627 39.8648L139.633 38.6584C139.633 38.3572 139.635 38.1966 139.636 38.1802C139.644 38.1419 139.657 38.12 139.677 38.1108C139.815 38.2259 139.952 38.3371 140.091 38.4485C140.398 38.6693 140.756 38.7788 141.162 38.7788C141.818 38.7788 142.365 38.5544 142.805 38.1072C143.227 37.6818 143.438 37.1818 143.438 36.6067C143.438 36.0299 143.222 35.5299 142.791 35.1064C142.344 34.6646 141.794 34.4438 141.142 34.4438ZM141.927 37.4865C141.672 37.7748 141.354 37.9193 140.98 37.9193C140.588 37.9193 140.266 37.7804 140.013 37.5029C139.783 37.2475 139.667 36.9461 139.667 36.5977C139.667 36.2564 139.779 35.9569 140.004 35.6997C140.246 35.4149 140.559 35.2725 140.942 35.2725C141.329 35.2725 141.653 35.4113 141.913 35.6869C142.159 35.946 142.283 36.2472 142.283 36.5886C142.283 36.9207 142.165 37.2202 141.927 37.4865ZM142.327 21.3273C139.189 15.6397 137.297 12.3104 136.649 11.3412C136.437 11.0343 136.205 10.8829 135.953 10.8829C135.608 10.8829 135.09 10.8993 134.394 10.9305C133.699 10.9633 133.173 10.9796 132.815 10.9796C132.445 10.9796 131.886 10.956 131.138 10.9103C130.389 10.8648 129.837 10.8409 129.481 10.8409C129.269 10.8409 129.083 11.0163 128.924 11.3684C128.646 11.9782 126.885 15.3495 123.643 21.4805C120.652 27.148 119.155 30.1034 119.155 30.3442C119.155 30.6125 120.168 30.7459 122.194 30.7459C124.761 30.7459 126.27 30.7092 126.721 30.6346C127.079 30.5706 127.382 30.1544 127.633 29.3861C127.911 28.5444 128.163 28.0499 128.387 27.9021C128.533 27.8197 129.732 27.7778 131.981 27.7778C135.318 27.7778 137.092 27.8107 137.304 27.8747C137.554 27.9678 137.906 28.6795 138.355 30.0103C138.474 30.3625 138.759 30.5706 139.209 30.6346C139.752 30.7092 140.969 30.7459 142.864 30.7459C144.928 30.7459 146.16 30.7092 146.556 30.6346C146.886 30.5706 147.053 30.4556 147.053 30.2876C147.053 30.0393 145.477 27.0514 142.327 21.3273ZM135.159 22.9227C135.066 23.0704 134.582 23.1453 133.71 23.1453C132.77 23.1453 132.094 23.1362 131.684 23.1161C130.89 23.0979 130.494 23.0065 130.494 22.8386C130.494 22.5905 130.85 21.7434 131.565 20.3015C132.226 18.9417 132.697 18.0582 132.974 17.6511C133.253 18.0217 133.69 18.8722 134.285 20.2048C134.894 21.5827 135.199 22.4225 135.199 22.7292C135.199 22.8113 135.185 22.877 135.159 22.9227ZM146.109 36.4918C146.003 36.4059 145.753 36.2673 145.357 36.0756C145.091 35.946 144.959 35.8147 144.959 35.6869C144.959 35.508 145.085 35.3876 145.339 35.3274C145.552 35.3054 145.764 35.2815 145.974 35.2561C146.038 35.2469 146.069 35.2268 146.069 35.1959C146.069 35.1558 146.038 35.0389 145.978 34.8454C145.916 34.652 145.875 34.535 145.853 34.4987C145.834 34.462 145.799 34.4438 145.753 34.4438C145.24 34.4438 144.815 34.5497 144.479 34.7632C144.107 35.0023 143.92 35.3363 143.92 35.7635C143.92 36.0921 144.057 36.3568 144.331 36.5594C144.397 36.6084 144.652 36.7382 145.096 36.9482C145.37 37.0796 145.507 37.2236 145.507 37.3807C145.507 37.7112 145.195 37.8754 144.572 37.8754C144.576 37.8754 144.527 37.8717 144.424 37.8626C144.385 37.8589 144.35 37.857 144.32 37.857C144.29 37.857 144.264 37.8589 144.242 37.8626C144.183 37.8754 144.154 37.899 144.154 37.9357C144.154 37.9959 144.163 38.089 144.182 38.2131C144.198 38.339 144.209 38.4338 144.209 38.4961C144.209 38.6129 144.236 38.6823 144.291 38.7059C144.319 38.7132 144.43 38.7185 144.627 38.7185C145.138 38.7185 145.57 38.6018 145.925 38.3682C146.317 38.1108 146.512 37.7714 146.512 37.3461C146.512 36.9974 146.377 36.7128 146.109 36.4918ZM116.303 23.25C116.291 23.2503 116.281 23.2529 116.269 23.2529C116.298 23.2529 116.309 23.2521 116.303 23.25ZM103.607 32.4543C103.594 32.4231 103.571 32.4086 103.538 32.4086C103.196 32.4086 102.866 32.4634 102.547 32.5711C102.191 32.6898 101.921 32.8558 101.736 33.0657C101.53 33.3012 101.426 33.67 101.426 34.1736C101.426 34.2887 101.431 34.4364 101.44 34.6191C101.022 34.639 100.814 34.6793 100.814 34.7377C100.814 34.7996 100.818 34.8927 100.824 35.0187C100.831 35.1429 100.835 35.236 100.835 35.2979C100.835 35.3949 100.838 35.4478 100.849 35.4568C100.86 35.4704 100.941 35.4779 101.093 35.4779C101.124 35.4779 101.157 35.4777 101.194 35.477C101.199 35.4769 101.204 35.4769 101.208 35.4769C101.4 35.4769 101.495 35.5135 101.495 35.5884V38.5307C101.495 38.6183 101.537 38.662 101.623 38.662H102.527C102.592 38.662 102.625 38.6238 102.625 38.5471C102.625 38.348 102.618 38.0451 102.602 37.6418C102.585 37.2367 102.576 36.9335 102.576 36.7346V35.4568C102.687 35.4568 102.86 35.4606 103.094 35.4715C103.328 35.4807 103.503 35.4861 103.618 35.4861C103.684 35.4861 103.717 35.4586 103.717 35.4057C103.717 35.3274 103.713 35.2104 103.706 35.0516C103.7 34.8927 103.697 34.7741 103.697 34.6957C103.697 34.6446 103.656 34.6191 103.578 34.6191C103.459 34.6191 103.284 34.6154 103.05 34.6099C102.817 34.6044 102.645 34.6009 102.536 34.6009C102.536 33.9857 102.618 33.6025 102.779 33.451C102.877 33.3596 103.019 33.303 103.207 33.2812C103.366 33.2683 103.525 33.2556 103.687 33.241C103.746 33.2354 103.775 33.2155 103.775 33.1826C103.775 33.1735 103.748 33.051 103.695 32.8157C103.64 32.582 103.611 32.4615 103.607 32.4543ZM109.609 34.5589C109.408 34.5589 109.244 34.5753 109.116 34.6099C108.961 34.6464 108.809 34.7049 108.661 34.7815C108.526 34.8545 108.391 34.9295 108.256 35.0023L108.232 35.0115C108.189 35.0115 108.16 34.9275 108.143 34.7597C108.127 34.5938 108.093 34.5099 108.041 34.5077C108.055 34.5096 107.89 34.5371 107.546 34.5935C107.325 34.6154 107.154 34.6319 107.033 34.6446C106.991 34.6592 106.969 34.683 106.969 34.7158C106.969 34.7286 106.971 34.745 106.979 34.7687C107.13 35.1959 107.205 35.7616 107.205 36.4644C107.205 36.698 107.201 37.0485 107.194 37.5121C107.185 37.9774 107.181 38.3245 107.181 38.5563C107.181 38.6274 107.219 38.662 107.294 38.662C107.396 38.662 107.552 38.6639 107.758 38.6675C107.966 38.6693 108.121 38.6713 108.223 38.6713C108.298 38.6713 108.336 38.6329 108.336 38.5563C108.336 38.3956 108.327 38.1545 108.313 37.8297C108.298 37.5029 108.291 37.262 108.291 37.1015V36.6323C108.291 36.2453 108.325 35.9898 108.395 35.8676C108.51 35.6651 108.774 35.5628 109.191 35.5628C109.262 35.5628 109.368 35.5701 109.508 35.5827C109.647 35.5957 109.753 35.6011 109.822 35.6011C109.877 35.6011 109.91 35.5701 109.921 35.5026C109.97 35.2469 109.994 34.9623 109.994 34.6482C109.994 34.588 109.866 34.5589 109.609 34.5589ZM106.579 32.4543C106.566 32.4231 106.542 32.4086 106.509 32.4086C106.168 32.4086 105.838 32.4634 105.518 32.5711C105.162 32.6898 104.892 32.8558 104.708 33.0657C104.502 33.3012 104.397 33.67 104.397 34.1736C104.397 34.2887 104.403 34.4364 104.412 34.6191C103.994 34.639 103.786 34.6793 103.786 34.7377C103.786 34.7996 103.788 34.8927 103.795 35.0187C103.801 35.1429 103.804 35.236 103.804 35.2979C103.804 35.3949 103.81 35.4478 103.821 35.4568C103.831 35.4704 103.912 35.4779 104.064 35.4779C104.095 35.4779 104.129 35.4777 104.166 35.477C104.17 35.4769 104.175 35.4769 104.18 35.4769C104.371 35.4769 104.467 35.5135 104.467 35.5884V38.5307C104.467 38.6183 104.509 38.662 104.595 38.662H105.498C105.564 38.662 105.597 38.6238 105.597 38.5471C105.597 38.348 105.587 38.0451 105.571 37.6418C105.555 37.2367 105.547 36.9335 105.547 36.7346V35.4568C105.659 35.4568 105.832 35.4606 106.066 35.4715C106.299 35.4807 106.473 35.4861 106.59 35.4861C106.655 35.4861 106.688 35.4586 106.688 35.4057C106.688 35.3274 106.685 35.2104 106.677 35.0516C106.672 34.8927 106.668 34.7741 106.668 34.6957C106.668 34.6446 106.628 34.6191 106.549 34.6191C106.431 34.6191 106.254 34.6154 106.022 34.6099C105.788 34.6044 105.617 34.6009 105.507 34.6009C105.507 33.9857 105.587 33.6025 105.75 33.451C105.849 33.3596 105.991 33.303 106.179 33.2812C106.338 33.2683 106.497 33.2556 106.657 33.241C106.717 33.2354 106.746 33.2155 106.746 33.1826C106.746 33.1735 106.719 33.051 106.665 32.8157C106.611 32.582 106.582 32.4615 106.579 32.4543ZM120.097 34.6575C119.854 34.6136 119.688 34.5935 119.598 34.5935C119.544 34.5935 119.496 34.683 119.461 34.8618C119.425 35.0424 119.396 35.1303 119.378 35.1303L119.346 35.1191C119.23 35.0095 119.142 34.9275 119.086 34.871C118.71 34.5679 118.271 34.4182 117.768 34.4182C117.054 34.4182 116.477 34.6319 116.041 35.0627C115.623 35.477 115.413 35.999 115.413 36.6323C115.413 37.1928 115.621 37.6855 116.036 38.1072C116.474 38.5488 117.01 38.7698 117.649 38.7698C117.91 38.7698 118.169 38.7132 118.429 38.5982C118.597 38.5269 118.777 38.4229 118.972 38.2861C119.129 38.1748 119.219 38.12 119.239 38.12C119.268 38.12 119.299 38.2186 119.332 38.4194C119.365 38.6183 119.412 38.7185 119.476 38.7185C119.564 38.7185 119.701 38.7096 119.883 38.6912C120.066 38.6713 120.203 38.662 120.292 38.662C120.383 38.662 120.427 38.6221 120.424 38.538L120.418 38.4796C120.336 37.2274 120.294 36.5886 120.294 36.5594C120.294 36.0867 120.358 35.5244 120.487 34.871C120.497 34.8309 120.502 34.8053 120.502 34.7943C120.502 34.7542 120.367 34.7085 120.097 34.6575ZM118.878 37.47C118.618 37.7402 118.295 37.8754 117.91 37.8754C117.516 37.8754 117.187 37.744 116.924 37.4793C116.671 37.2256 116.543 36.9263 116.543 36.5813C116.543 36.2327 116.671 35.9313 116.924 35.6741C117.187 35.4057 117.516 35.2725 117.91 35.2725C118.306 35.2725 118.629 35.4074 118.883 35.6795C119.124 35.9296 119.244 36.2308 119.244 36.5813C119.244 36.9207 119.122 37.2164 118.878 37.47ZM98.1441 34.4255C97.4633 34.4255 96.89 34.639 96.4266 35.068C95.9755 35.4861 95.7493 35.9936 95.7493 36.5886C95.7493 37.1854 95.9755 37.6928 96.4266 38.1108C96.8863 38.5454 97.4594 38.7606 98.1441 38.7606C98.8247 38.7606 99.3961 38.5433 99.8561 38.1072C100.307 37.6855 100.533 37.1764 100.533 36.5813C100.533 35.988 100.305 35.4841 99.8524 35.068C99.3908 34.639 98.8214 34.4255 98.1441 34.4255ZM99.1206 37.4793C98.8612 37.744 98.5347 37.8754 98.1441 37.8754C97.7553 37.8754 97.4303 37.744 97.1657 37.4793C96.9155 37.2274 96.7915 36.9318 96.7915 36.5886C96.7915 36.2417 96.9155 35.9443 97.162 35.6958C97.4211 35.4386 97.7498 35.3109 98.1441 35.3109C98.5383 35.3109 98.8651 35.4403 99.1206 35.6997C99.3688 35.946 99.4912 36.2417 99.4912 36.5886C99.4912 36.9318 99.3688 37.2274 99.1206 37.4793ZM48.9416 23.096C48.9416 22.9627 49.0948 22.8187 49.4015 22.6652C50.9073 21.8784 51.9405 21.0698 52.5008 20.236C53.0612 19.4016 53.3404 18.2864 53.3404 16.8863C53.3404 14.7872 52.2544 13.1829 50.0803 12.0694C48.1621 11.0838 45.6833 10.5891 42.6442 10.5891C41.1767 10.5891 39.2109 10.6092 36.7449 10.6474C33.107 10.7041 31.0701 10.7626 30.6375 10.8191C30.2049 10.8775 29.9949 10.987 30.0077 11.1493L30.0279 11.352C30.2816 13.6227 30.4075 16.7859 30.4075 20.8401C30.4075 21.9041 30.3381 23.4995 30.1976 25.6258C30.057 27.7543 29.9877 29.344 29.9877 30.399C29.9877 30.6381 30.1811 30.7879 30.568 30.8443C30.9532 30.9028 32.0996 30.9301 34.007 30.9301C35.6716 30.9301 36.8982 30.9118 37.6849 30.8736C37.8711 30.8646 38.0591 30.8535 38.2453 30.8443C38.3659 30.8152 38.4242 30.7203 38.4242 30.5577C38.4242 29.9061 38.342 28.9333 38.176 27.6391C38.0079 26.345 37.9259 25.3722 37.9259 24.7205C37.9259 24.2314 38.0244 23.9868 38.2251 23.9868C39.7396 23.9868 40.4583 23.9801 40.3869 23.9667C41.1931 24.0167 41.7142 24.2195 41.9432 24.5764C43.0496 26.4455 43.8636 27.86 44.3837 28.8184C44.7689 29.5558 45.0628 30.1106 45.2635 30.4848C45.3694 30.649 45.4624 30.7438 45.5428 30.7732C45.5829 30.7914 45.7491 30.8152 46.043 30.8443C46.669 30.9028 47.8554 30.9301 49.6004 30.9301C51.6413 30.9301 52.9132 30.9028 53.4208 30.8443C53.6872 30.8152 53.8204 30.7677 53.8204 30.7C53.8204 30.4519 53.0064 29.1194 51.3801 26.7045C49.7597 24.2987 48.9476 23.096 48.9416 23.096ZM41.0434 20.307C40.1509 20.307 39.2985 20.265 38.4844 20.1775C38.0591 20.1299 37.8456 20.0824 37.8456 20.0349C37.8456 19.8232 37.8383 19.502 37.8254 19.0712C37.8107 18.6405 37.8054 18.3137 37.8054 18.0929C37.8054 16.5414 37.8456 15.6012 37.9259 15.2763C38.0043 14.9989 38.6779 14.8584 39.9445 14.8584C41.7042 14.8584 42.9966 15.0318 43.8232 15.3768C44.8893 15.8278 45.4224 16.6363 45.4224 17.8063C45.4224 19.4747 43.964 20.307 41.0434 20.307ZM116.802 23.0065C116.946 22.7784 117.018 21.9698 117.018 20.5754C117.018 18.9744 116.802 18.1732 116.368 18.1732C115.461 18.1732 114.101 18.2061 112.292 18.2754C110.483 18.3431 109.125 18.3776 108.218 18.3776C107.678 18.3776 107.278 18.354 107.015 18.3083C106.383 18.1914 106.068 17.6986 106.068 16.8333C106.068 16.116 106.31 15.6781 106.798 15.5227C107.008 15.459 107.745 15.428 109.006 15.428C110.006 15.428 111.511 15.4864 113.517 15.6049C115.521 15.7236 117.018 15.7821 118.005 15.7821C118.268 15.7821 118.399 15.7329 118.399 15.6324C118.399 15.3587 118.333 14.9734 118.202 14.4715C118.058 13.8982 117.972 13.5113 117.947 13.3106C117.894 12.5276 117.866 11.9417 117.866 11.5491C117.788 11.1768 117.419 10.9888 116.762 10.9888C115.709 10.9888 114.128 11.0435 112.016 11.153C109.906 11.2627 108.324 11.3174 107.27 11.3174C106.285 11.3174 104.808 11.3029 102.84 11.2754C100.875 11.2497 99.4055 11.2352 98.4306 11.2352C98.0236 11.2352 97.8263 11.3484 97.8392 11.5766L97.8592 11.7408C97.872 11.9508 97.9962 13.4621 98.2336 16.2748C98.3923 18.0947 98.4706 19.606 98.4706 20.8071C98.4706 21.8182 98.4214 23.337 98.3229 25.3631C98.2244 27.3872 98.1749 28.906 98.1749 29.9172C98.1749 30.1343 98.365 30.2767 98.7464 30.3407C99.4565 30.4575 101.043 30.5177 103.501 30.5177C104.846 30.5177 105.438 30.5211 105.28 30.5294C106.067 30.493 106.474 30.3643 106.501 30.1452C106.5 30.1454 106.5 30.1456 106.5 30.1456C106.488 30.1456 106.422 29.4588 106.305 28.0863C106.146 26.4018 106.068 24.9141 106.068 23.6217C106.068 23.3022 106.403 23.1071 107.073 23.0339C107.192 23.0249 107.712 23.0213 108.632 23.0213C111.487 23.0213 113.617 23.065 115.026 23.1564C115.854 23.2092 116.279 23.2407 116.303 23.25C116.546 23.2425 116.713 23.1632 116.802 23.0065ZM112.62 34.4255C111.94 34.4255 111.366 34.639 110.903 35.068C110.452 35.4861 110.226 35.9936 110.226 36.5886C110.226 37.1854 110.452 37.6928 110.903 38.1108C111.363 38.5454 111.936 38.7606 112.62 38.7606C113.301 38.7606 113.873 38.5433 114.333 38.1072C114.783 37.6855 115.008 37.1764 115.008 36.5813C115.008 35.988 114.782 35.4841 114.327 35.068C113.867 34.639 113.298 34.4255 112.62 34.4255ZM113.597 37.4793C113.338 37.744 113.011 37.8754 112.62 37.8754C112.232 37.8754 111.905 37.744 111.642 37.4793C111.392 37.2274 111.268 36.9318 111.268 36.5886C111.268 36.2417 111.39 35.9443 111.638 35.6958C111.898 35.4386 112.224 35.3109 112.62 35.3109C113.015 35.3109 113.34 35.4403 113.597 35.6997C113.843 35.946 113.967 36.2417 113.967 36.5886C113.967 36.9318 113.843 37.2274 113.597 37.4793Z" fill="white"/>
</svg>
