<svg width="10" height="16" viewBox="0 0 10 16" fill="none" xmlns="http://www.w3.org/2000/svg">
<path d="M6.08025 15.9688H3.51298C3.08417 15.9688 2.73534 15.6206 2.73534 15.1926V9.41333H1.23754C0.808726 9.41333 0.4599 9.06506 0.4599 8.63721V6.16077C0.4599 5.73279 0.808726 5.38464 1.23754 5.38464H2.73534V4.14453C2.73534 2.91492 3.1222 1.86877 3.85398 1.11938C4.58906 0.366577 5.61633 -0.03125 6.82475 -0.03125L8.78267 -0.0280762C9.21076 -0.0273437 9.55897 0.320801 9.55897 0.748047V3.04736C9.55897 3.47534 9.21027 3.82349 8.78157 3.82349L7.46332 3.82398C7.06129 3.82398 6.95892 3.90442 6.93703 3.92908C6.90095 3.96997 6.85802 4.08557 6.85802 4.40479V5.38452H8.6825C8.81985 5.38452 8.95293 5.41834 9.06729 5.48206C9.31398 5.61963 9.46736 5.87976 9.46736 6.16089L9.46638 8.63733C9.46638 9.06506 9.11756 9.41321 8.68874 9.41321H6.85802V15.1926C6.85802 15.6206 6.50907 15.9688 6.08025 15.9688ZM3.67516 15.0308H5.91807V8.99341C5.91807 8.70764 6.15107 8.47522 6.43727 8.47522H8.52656L8.52741 6.32263H6.43715C6.15095 6.32263 5.91807 6.09021 5.91807 5.80444V4.40479C5.91807 4.03833 5.95537 3.62158 6.23253 3.30835C6.56741 2.92969 7.09517 2.88599 7.46308 2.88599L8.61915 2.8855V0.909668L6.82401 0.906738C4.88199 0.906738 3.67516 2.14746 3.67516 4.14453V5.80444C3.67516 6.09009 3.44229 6.32263 3.15608 6.32263H1.39972V8.47522H3.15608C3.44229 8.47522 3.67516 8.70764 3.67516 8.99341V15.0308ZM8.78084 0.909912H8.78096H8.78084Z" fill="white"/>
</svg>
