<svg width="14" height="24" viewBox="0 0 14 24" fill="none" xmlns="http://www.w3.org/2000/svg">
<path d="M8.62037 23.9531H4.76947C4.12624 23.9531 3.603 23.4309 3.603 22.7889V14.12H1.35631C0.713081 14.12 0.189842 13.5976 0.189842 12.9558V9.24115C0.189842 8.59918 0.713081 8.07697 1.35631 8.07697H3.603V6.2168C3.603 4.37238 4.1833 2.80316 5.28096 1.67908C6.38358 0.549866 7.92449 -0.046875 9.73711 -0.046875L12.674 -0.0421143C13.3161 -0.0410156 13.8384 0.481201 13.8384 1.12207V4.57105C13.8384 5.21301 13.3154 5.73523 12.6724 5.73523L10.695 5.73596C10.0919 5.73596 9.93837 5.85663 9.90553 5.89362C9.85141 5.95496 9.78702 6.12836 9.78702 6.60718V8.07678H12.5237C12.7298 8.07678 12.9294 8.1275 13.1009 8.22308C13.471 8.42944 13.701 8.81964 13.701 9.24133L13.6996 12.956C13.6996 13.5976 13.1763 14.1198 12.5331 14.1198H9.78702V22.7889C9.78702 23.4309 9.26359 23.9531 8.62037 23.9531ZM5.01274 22.5461H8.3771V13.4901C8.3771 13.0615 8.7266 12.7128 9.1559 12.7128H12.2898L12.2911 9.48395H9.15572C8.72641 9.48395 8.3771 9.13532 8.3771 8.70667V6.60718C8.3771 6.0575 8.43305 5.43237 8.84878 4.96253C9.35111 4.39453 10.1428 4.32898 10.6946 4.32898L12.4287 4.32825V1.3645L9.73601 1.36011C6.82298 1.36011 5.01274 3.22119 5.01274 6.2168V8.70667C5.01274 9.13513 4.66342 9.48395 4.23412 9.48395H1.59958V12.7128H4.23412C4.66342 12.7128 5.01274 13.0615 5.01274 13.4901V22.5461ZM12.6713 1.36487H12.6714H12.6713Z" fill="white"/>
</svg>
