<svg width="120" height="120" viewBox="0 0 120 120" fill="none" xmlns="http://www.w3.org/2000/svg">
<g clip-path="url(#clip0)">
<path d="M68.1019 119.765H48.8473C45.6312 119.765 43.015 117.154 43.015 113.944V70.5995H31.7815C28.5654 70.5995 25.9492 67.9875 25.9492 64.7786V46.2053C25.9492 42.9954 28.5654 40.3843 31.7815 40.3843H43.015V31.0835C43.015 21.8614 45.9165 14.0153 51.4048 8.3949C56.9179 2.74884 64.6225 -0.234863 73.6856 -0.234863L88.37 -0.21106C91.5806 -0.205566 94.1922 2.40552 94.1922 5.60986V22.8547C94.1922 26.0646 91.577 28.6757 88.3618 28.6757L78.4749 28.6793C75.4597 28.6793 74.6919 29.2827 74.5277 29.4676C74.2571 29.7743 73.9351 30.6413 73.9351 33.0354V40.3834H87.6187C88.6489 40.3834 89.6469 40.637 90.5046 41.1149C92.3549 42.1467 93.5052 44.0977 93.5052 46.2062L93.4978 64.7795C93.4978 67.9875 90.8816 70.5986 87.6655 70.5986H73.9351V113.944C73.9351 117.154 71.318 119.765 68.1019 119.765ZM50.0637 112.73H66.8855V67.4501C66.8855 65.3068 68.633 63.5637 70.7795 63.5637H86.4492L86.4556 47.4193H70.7786C68.6321 47.4193 66.8855 45.6761 66.8855 43.5328V33.0354C66.8855 30.287 67.1653 27.1614 69.2439 24.8121C71.7555 21.9722 75.7138 21.6444 78.4731 21.6444L87.1436 21.6407V6.82202L73.6801 6.80005C59.1149 6.80005 50.0637 16.1055 50.0637 31.0835V43.5328C50.0637 45.6752 48.3171 47.4193 46.1706 47.4193H32.9979V63.5637H46.1706C48.3171 63.5637 50.0637 65.3068 50.0637 67.4501V112.73ZM88.3563 6.82385H88.3572H88.3563Z" fill="black"/>
</g>
<defs>
<clipPath id="clip0">
<rect width="120" height="120" fill="white"/>
</clipPath>
</defs>
</svg>
