<svg width="120" height="120" viewBox="0 0 120 120" fill="none" xmlns="http://www.w3.org/2000/svg">
<path d="M93.7372 120H26.2628C11.7819 120 0 108.218 0 93.7372V26.2628C0 11.7819 11.7819 0 26.2628 0H93.7372C108.218 0 120 11.7819 120 26.2628V93.7372C120 108.218 108.218 120 93.7372 120ZM26.2628 7.03125C15.6583 7.03125 7.03125 15.6583 7.03125 26.2628V93.7372C7.03125 104.342 15.6583 112.969 26.2628 112.969H93.7372C104.342 112.969 112.969 104.342 112.969 93.7372V26.2628C112.969 15.6583 104.342 7.03125 93.7372 7.03125H26.2628Z" fill="black"/>
<path d="M59.9999 96.1835C40.0487 96.1835 23.8164 79.9512 23.8164 60C23.8164 40.0488 40.0487 23.8165 59.9999 23.8165C79.951 23.8165 96.1833 40.0488 96.1833 60C96.1833 79.9512 79.951 96.1835 59.9999 96.1835ZM59.9999 30.8478C43.925 30.8478 30.8477 43.9252 30.8477 60C30.8477 76.0748 43.925 89.1522 59.9999 89.1522C76.0747 89.1522 89.1521 76.0748 89.1521 60C89.1521 43.9252 76.0747 30.8478 59.9999 30.8478Z" fill="black"/>
<path d="M97.0167 27.6151C96.2266 27.6151 95.4264 27.4146 94.694 26.9916C93.6155 26.369 92.8446 25.3638 92.5223 24.1617C92.2001 22.9587 92.3649 21.7017 92.9874 20.6232C93.61 19.5456 94.6152 18.7747 95.8182 18.4525C97.0203 18.1293 98.2764 18.295 99.3549 18.9176C100.433 19.5401 101.205 20.5454 101.527 21.7484C101.85 22.9505 101.684 24.2066 101.061 25.2851C100.199 26.7792 98.6289 27.6151 97.0167 27.6151Z" fill="black"/>
</svg>
