<svg width="350" height="96" viewBox="0 0 350 96" fill="none" xmlns="http://www.w3.org/2000/svg">
<path d="M178.584 23.4973C168.23 23.4973 158.899 29.7364 154.937 39.2981C153.625 42.465 152.99 45.7885 152.99 49.0857C152.99 55.7455 155.588 62.293 160.484 67.1889C165.381 72.0803 171.928 74.683 178.587 74.683C181.885 74.683 185.208 74.0444 188.375 72.7367C197.938 68.7747 204.172 59.4428 204.172 49.0904C204.172 42.3044 201.478 35.7921 196.678 30.9963C191.877 26.1954 185.369 23.4973 178.584 23.4973ZM185.117 30.0273C185.647 30.0273 186.129 30.2403 186.481 30.5919C186.828 30.9393 187.041 31.4217 187.041 31.9517C187.041 33.1117 186.095 33.8808 185.104 33.8808C184.626 33.8808 184.148 33.707 183.753 33.3162C183.362 32.9202 183.184 32.4383 183.184 31.9648C183.184 30.9743 183.953 30.0273 185.117 30.0273ZM171.372 29.8928C171.901 29.8928 172.384 30.1096 172.732 30.4574C173.083 30.8048 173.296 31.2872 173.296 31.8214C173.296 32.9814 172.349 33.7505 171.354 33.7505C170.881 33.7505 170.403 33.5767 170.007 33.1812C169.616 32.7904 169.438 32.308 169.438 31.8345C169.443 30.8441 170.207 29.897 171.372 29.8928ZM162.118 40.4669C162.653 40.4669 163.135 40.684 163.482 41.0315C163.83 41.3793 164.047 41.8613 164.047 42.3959C164.043 43.5554 163.096 44.3245 162.105 44.3245C161.631 44.3245 161.149 44.1508 160.758 43.7553C160.363 43.3644 160.189 42.8821 160.189 42.409C160.189 41.4181 160.958 40.4669 162.118 40.4669ZM160.098 57.3663C159.703 56.9752 159.529 56.4929 159.529 56.0199C159.529 55.0287 160.298 54.0821 161.458 54.0775C161.992 54.0775 162.475 54.2946 162.822 54.6421C163.169 54.9946 163.387 55.4717 163.387 56.0067C163.382 57.1665 162.435 57.9354 161.445 57.9354C160.971 57.9354 160.489 57.7616 160.098 57.3663ZM171.354 67.7143C170.881 67.7143 170.403 67.541 170.007 67.1499C169.616 66.7541 169.438 66.2719 169.438 65.7988C169.443 64.8081 170.207 63.8615 171.372 63.8615C171.901 63.8615 172.384 64.074 172.732 64.4215C173.083 64.7735 173.296 65.2557 173.296 65.7856C173.296 66.9454 172.349 67.7143 171.354 67.7143ZM185.364 67.9795C184.891 67.9795 184.409 67.8057 184.019 67.4145C183.627 67.0197 183.449 66.5375 183.449 66.0634C183.449 65.0732 184.218 64.1262 185.382 64.1221C185.912 64.1221 186.395 64.3387 186.742 64.6867C187.089 65.0383 187.307 65.5204 187.307 66.0505C187.307 67.2103 186.355 67.9795 185.364 67.9795ZM195.409 58.2001C194.935 58.2001 194.453 58.0263 194.062 57.6315C193.671 57.2403 193.493 56.7578 193.493 56.2845C193.493 55.2943 194.262 54.3473 195.426 54.3424C195.956 54.3424 196.438 54.5596 196.786 54.9073C197.138 55.2551 197.35 55.7374 197.35 56.2714C197.35 57.4314 196.403 58.2001 195.409 58.2001ZM191.679 53.4348L191.585 53.4747C191.387 54.0607 191.15 54.6309 190.878 55.1819L190.917 55.2766L195.261 65.768L184.772 61.4247L184.674 61.3843C184.399 61.5202 184.118 61.6485 183.831 61.7668C183.546 61.885 183.259 61.9932 182.97 62.0909L182.93 62.1865L178.584 72.6802L174.236 62.1851L174.195 62.0888C173.614 61.8928 173.045 61.6569 172.492 61.383L172.395 61.4234L161.905 65.768L166.249 55.2798L166.288 55.1843C166.013 54.6297 165.777 54.0585 165.58 53.4755L165.484 53.436L154.993 49.0904L165.484 44.747L165.582 44.7065C165.68 44.4164 165.788 44.128 165.906 43.8421C166.025 43.5554 166.153 43.2742 166.289 42.9988L166.249 42.9019L161.905 32.4122L172.394 36.7581L172.49 36.7977C173.041 36.5245 173.611 36.2879 174.197 36.0902L174.237 35.9945L178.584 25.5048L182.93 35.9962L182.97 36.0923C183.554 36.2896 184.122 36.5253 184.674 36.799L184.77 36.7589L195.261 32.4122L190.916 42.9057L190.876 43.0022C191.149 43.5537 191.385 44.1234 191.582 44.7061L191.678 44.7462L202.169 49.0904L191.679 53.4348ZM197.35 41.8655C197.35 43.0254 196.403 43.7945 195.409 43.7945C194.935 43.7945 194.453 43.6204 194.062 43.2253C193.671 42.8344 193.493 42.352 193.493 41.8785C193.493 40.8881 194.262 39.9415 195.426 39.9369C195.956 39.9369 196.438 40.154 196.786 40.5014C197.138 40.8489 197.35 41.3312 197.35 41.8655ZM189.107 43.6811C187.978 41.4902 186.186 39.6978 183.996 38.5686C183.423 38.2735 182.822 38.0234 182.2 37.824C181.06 37.4584 179.845 37.2607 178.584 37.2607C177.334 37.2607 176.118 37.4567 174.969 37.8248C174.348 38.0243 173.746 38.2739 173.17 38.5703C171.008 39.6826 169.205 41.4518 168.062 43.6794C167.915 43.9665 167.778 44.2617 167.653 44.5632C167.527 44.8655 167.415 45.1712 167.316 45.479C166.936 46.6617 166.749 47.8798 166.749 49.0904C166.749 50.3195 166.941 51.5389 167.315 52.7051C167.512 53.321 167.761 53.9232 168.059 54.5029C168.611 55.5755 169.333 56.5744 170.216 57.4573C171.099 58.3409 172.098 59.0623 173.171 59.6146C173.75 59.9122 174.351 60.1604 174.967 60.3577C176.133 60.7321 177.353 60.9243 178.584 60.9243C179.795 60.9243 181.014 60.7378 182.198 60.3582C182.504 60.2602 182.808 60.1491 183.11 60.025C183.413 59.8998 183.708 59.762 183.996 59.6141C186.223 58.4682 187.992 56.6647 189.104 54.5021C189.4 53.9251 189.651 53.3223 189.85 52.7001C190.217 51.5532 190.413 50.3376 190.413 49.0904C190.413 47.8301 190.215 46.6162 189.851 45.4773C189.651 44.8541 189.402 44.2541 189.107 43.6811ZM181.594 56.3537C180.619 56.7572 179.596 56.9529 178.582 56.9529C176.536 56.9529 174.527 56.1553 173.022 54.651C170.772 52.4007 170.103 49.0208 171.319 46.084C172.536 43.1468 175.403 41.2313 178.584 41.2313C180.669 41.2313 182.666 42.0565 184.14 43.5339C185.617 45.0063 186.446 47.0049 186.446 49.0904C186.446 52.2704 184.526 55.1379 181.594 56.3537ZM219.689 52.4876V44.4071L223.421 43.6435L223.498 43.6279C223.187 41.0648 222.66 38.5539 221.932 36.121L221.855 36.1366L218.242 36.8694L218.186 36.7374L218.182 36.7391L215.11 29.5015L215.113 29.5003L215.084 29.4324L218.155 27.314L218.219 27.2702C216.877 24.8331 215.313 22.5246 213.548 20.3746L213.482 20.4172L210.171 22.5811L204.484 16.842L206.605 13.6645L206.648 13.6008C204.546 11.9383 202.284 10.4533 199.877 9.17061L199.834 9.2347L197.738 12.4194L190.234 9.41769L190.917 5.63847L190.931 5.56258C188.323 4.82175 185.678 4.32378 183.026 4.06194L183.01 4.13868L182.223 7.98409H174.143L173.372 4.2247L173.356 4.14754C170.804 4.44479 168.279 4.95878 165.814 5.68359L165.83 5.76033L166.601 9.43961L159.181 12.65L156.94 9.44299L156.895 9.37763C154.374 10.7543 151.967 12.3806 149.714 14.2481L149.758 14.3143L151.866 17.4631L146.187 23.211L143.067 21.1804L143 21.1369C141.292 23.3097 139.802 25.6152 138.537 28.0195L138.604 28.0629L141.752 30.1403L138.746 37.6427L135.067 36.9748L134.99 36.9609C134.352 39.2538 133.896 41.5948 133.626 43.9589L133.702 43.975L137.473 44.7457V52.8262L133.637 53.6109L133.559 53.6267C133.855 56.5584 134.439 59.482 135.321 62.3528L135.398 62.3383L139.21 61.6194L142.273 69.0962L139.173 71.1719L139.109 71.2151C140.237 73.2319 141.502 75.1351 142.889 76.9161L142.952 76.8732L146.153 74.7176L151.917 80.3785L149.688 83.8233L149.646 83.8884C152.018 85.8574 154.577 87.5703 157.274 89.0087L157.317 88.9437L159.32 85.8388L166.849 88.7716L166.205 92.5324L166.192 92.61C168.551 93.2832 170.967 93.7663 173.418 94.0502L173.434 93.9733L174.209 90.1966H182.284L183.074 94.0482L183.089 94.1248C186.131 93.8193 189.177 93.1992 192.183 92.2477L192.167 92.1722L191.416 88.6151L191.536 88.5632L191.49 88.4545L198.728 85.3831L198.748 85.4308L198.828 85.3959L200.907 88.3576L200.951 88.4203C203.052 87.2258 205.038 85.8739 206.895 84.3841L206.854 84.3196L204.641 80.9125L208.302 77.3089L210.245 75.3653L210.261 75.381L210.401 75.243L213.72 77.4726L213.784 77.5159C215.582 75.2888 217.164 72.8968 218.511 70.3718L218.446 70.3295L215.289 68.2616L218.269 60.7505L222.038 61.4206L222.115 61.4341C222.863 58.7971 223.376 56.0737 223.635 53.2946L223.558 53.2792L219.689 52.4876ZM189.096 74.4784C185.699 75.8862 182.128 76.573 178.587 76.573C171.437 76.573 164.407 73.7746 159.151 68.5222C153.894 63.2661 151.101 56.2365 151.101 49.0857C151.101 45.5452 151.787 41.9743 153.195 38.577C157.448 28.307 167.466 21.6121 178.584 21.6121C185.869 21.6121 192.858 24.5055 198.011 29.6622C203.168 34.8147 206.061 41.8048 206.061 49.0904C206.061 60.2075 199.367 70.2256 189.096 74.4784ZM246.668 5.61613V5.06461L246.898 5.33826L247.12 5.06883V5.59926L259.193 19.9614H259.553L259.445 20.0963H263.463L275.154 5.74641V5.19491L275.38 5.46433L275.601 5.19912V5.72491L287.674 20.0917H291.641L291.731 19.9829L291.718 19.966H291.745L303.436 5.61613V5.06461L303.661 5.33826L303.882 5.06883V5.59926L315.961 19.9614H319.574L331.37 5.48584V4.92969L331.596 5.20376L331.817 4.93433V5.46433L343.89 19.8311H348.039L331.817 -0.00104523V0.00359344L317.824 17.1768L303.882 0.129669V0.133888L289.721 17.5196L275.601 0.259956V0.264168L261.443 17.6415L247.12 0.129669V0.133888L230.963 19.966H234.982L246.668 5.61613ZM15.7047 6.47671V5.92056L15.9349 6.19421L16.1522 5.92477V6.45478L28.2295 20.8173H28.5903L28.4815 20.9518H32.4999L44.1864 6.607V6.05084L44.4166 6.32449L44.638 6.05506V6.58508L56.711 20.9476H60.6774L60.7685 20.8388L60.7554 20.8215H60.782L72.4683 6.47671V5.92056L72.6985 6.19421L72.9199 5.92477V6.45478L84.9929 20.8173H88.6115L100.402 6.34178V5.79027L100.633 6.06391L100.854 5.79027V6.32449L112.927 20.687H117.076L100.854 0.854897V0.859116L86.8608 18.0366L72.9199 0.98941L58.753 18.3756L44.638 1.11969L30.4797 18.5016L16.1522 0.98941L0 20.8215H4.01849L15.7047 6.47671ZM121.524 86.7559C121.251 86.5167 120.599 86.1387 119.57 85.6133C118.879 85.2526 118.531 84.8964 118.531 84.5444C118.531 84.049 118.861 83.7192 119.517 83.554C120.078 83.4934 120.63 83.4236 121.177 83.3544C121.338 83.3325 121.42 83.2762 121.42 83.1892C121.42 83.0805 121.342 82.759 121.181 82.2248C121.025 81.6945 120.916 81.3771 120.86 81.2729C120.808 81.1687 120.716 81.1213 120.599 81.1213C119.261 81.1213 118.157 81.412 117.284 82.0033C116.316 82.6588 115.833 83.5801 115.833 84.7527C115.833 85.6565 116.19 86.3866 116.898 86.9425C117.072 87.0774 117.732 87.4336 118.892 88.011C119.6 88.3716 119.956 88.7716 119.956 89.2018C119.956 90.1096 119.148 90.5656 117.528 90.5656C117.536 90.5656 117.406 90.5529 117.141 90.5313C117.039 90.5182 116.949 90.5117 116.87 90.5117C116.791 90.5117 116.724 90.5182 116.667 90.5313C116.511 90.5614 116.437 90.6265 116.437 90.731C116.437 90.8962 116.459 91.1478 116.507 91.4958C116.554 91.8387 116.576 92.0994 116.576 92.2686C116.576 92.5903 116.65 92.7813 116.798 92.8467C116.863 92.8686 117.154 92.881 117.671 92.881C118.996 92.881 120.121 92.5598 121.046 91.9169C122.067 91.2133 122.575 90.2748 122.575 89.1062C122.575 88.1501 122.224 87.3642 121.524 86.7559ZM9.47485 67.2193C15.8219 71.9156 23.9416 74.2659 33.8468 74.2659C39.9982 74.2659 46.4237 73.3316 53.1186 71.4594C53.7919 71.6417 55.5772 71.9848 58.4794 72.4891C61.3769 72.9882 63.1318 73.2407 63.7402 73.2407C64.7045 73.2407 65.1523 72.9321 65.087 72.3154L65.0389 71.9414C64.4313 66.0768 64.1269 61.6759 64.1269 58.7301C64.1269 57.6356 64.2138 55.9848 64.3921 53.769C64.5654 51.5578 64.6569 49.9071 64.6569 48.8125C64.6569 48.0565 64.253 47.6825 63.4535 47.6825C62.4281 47.6825 60.8903 47.7306 58.8399 47.8347C56.7894 47.9389 55.2517 47.9873 54.2262 47.9873C53.2615 47.9873 51.8452 47.9258 49.9731 47.7997C48.0963 47.6741 46.6931 47.6129 45.7634 47.6129C45.4113 47.6129 45.1549 47.6349 44.9943 47.6825C44.5815 47.774 44.3732 48.0346 44.3732 48.4689C44.3732 49.929 44.5815 51.8446 44.9943 54.2163C45.4766 57.2967 45.7634 59.2122 45.8629 59.9641C41.8229 61.1285 38.1692 61.7108 34.9024 61.7108C29.7414 61.7108 25.7532 60.59 22.9338 58.3571C20.2099 56.189 18.8502 53.2479 18.8502 49.5289C18.8502 46.0145 20.1621 43.0866 22.7905 40.7363C25.6099 38.1815 29.424 36.9044 34.2289 36.9044C37.179 36.9044 39.868 37.369 42.305 38.3076C43.9385 38.9198 45.5416 39.7889 47.1101 40.9054C48.3919 41.844 49.1302 42.3086 49.3212 42.3086C50.1556 42.3086 52.0063 41.0403 54.8735 38.4944C57.7406 35.9527 59.1742 34.3151 59.1742 33.5852C59.1742 33.355 58.9048 32.9683 58.3575 32.421C55.6986 29.7752 52.0455 27.7205 47.401 26.2603C43.1049 24.9402 38.5213 24.2794 33.6512 24.2794C23.6245 24.2794 15.4657 26.7427 9.18809 31.6692C3.09745 36.4351 0.0564938 42.4351 0.0564938 49.6638C0.0564938 56.7363 3.19298 62.5878 9.47485 67.2193ZM29.5849 76.3207C29.5849 76.1555 29.5111 76.0731 29.3678 76.0731C29.0592 76.0731 28.5903 76.0991 27.9688 76.1513C27.3434 76.2032 26.8697 76.2296 26.5527 76.2296C26.4179 76.2296 26.3486 76.3207 26.3486 76.5071C26.3486 76.7769 26.3614 77.1722 26.3873 77.6979C26.4136 78.2238 26.4265 78.6145 26.4265 78.8752V82.6852C26.4265 82.7722 26.3918 82.8239 26.3224 82.8502C25.9617 82.5506 25.5969 82.2548 25.2321 81.9684C24.4237 81.3861 23.4855 81.095 22.4037 81.095C20.6137 81.095 19.1628 81.6945 18.0506 82.885C16.9862 84.0231 16.4564 85.4264 16.4564 87.0949C16.4564 88.7024 16.982 90.0747 18.0376 91.2133C19.15 92.4209 20.5706 93.0251 22.3036 93.0251C23.8245 93.0251 25.1754 92.4427 26.3486 91.2825C26.4265 91.2041 26.4919 91.1519 26.5397 91.1305C26.5831 91.1392 26.6177 91.4126 26.6395 91.9606C26.6568 92.5033 26.7307 92.7767 26.8478 92.7767C26.9784 92.7767 27.1651 92.7644 27.4126 92.7426C27.6648 92.7163 27.8515 92.7075 27.9818 92.7075C27.9556 92.7075 28.121 92.7163 28.4815 92.7426C28.6314 92.7487 28.764 92.752 28.8796 92.752C28.9953 92.752 29.0943 92.7487 29.1766 92.7426C29.4156 92.7163 29.5284 92.6685 29.5198 92.5861L29.5068 92.4338C29.3634 90.8439 29.2896 88.4981 29.2896 85.4004C29.2896 84.397 29.3373 82.885 29.4371 80.8649C29.5373 78.8492 29.5849 77.3328 29.5849 76.3207ZM25.4491 89.5188C24.7801 90.2617 23.9327 90.6355 22.9074 90.6355C21.8867 90.6355 21.0309 90.2658 20.3359 89.5275C19.6581 88.8323 19.3234 88.011 19.3234 87.073C19.3234 86.0822 19.6451 85.2354 20.2967 84.5312C20.9831 83.7802 21.852 83.4017 22.9074 83.4017C23.9068 83.4017 24.7454 83.7843 25.4231 84.5444C26.0574 85.2567 26.3745 86.0822 26.3745 87.0247C26.3745 87.9895 26.0661 88.8193 25.4491 89.5188ZM114.764 86.4125C114.764 84.9095 114.239 83.6278 113.188 82.5765C112.106 81.4949 110.763 80.9563 109.152 80.9563C107.423 80.9563 105.963 81.5772 104.773 82.8239C103.643 84.0231 103.079 85.4308 103.079 87.0466C103.079 88.8583 103.669 90.3099 104.851 91.3957C106.033 92.4819 107.614 93.0251 109.604 93.0251C111.571 93.0251 113.188 92.4119 114.447 91.187C114.582 91.0567 114.651 90.9653 114.651 90.9177C114.651 90.8785 114.5 90.5963 114.2 90.0662C113.9 89.5361 113.739 89.2627 113.718 89.2496C113.696 89.2319 113.653 89.2237 113.583 89.2237C113.449 89.3278 113.309 89.4279 113.175 89.5275C112.045 90.3313 110.803 90.731 109.447 90.731C108.661 90.731 107.922 90.4964 107.24 90.0357C106.519 89.5493 106.102 88.963 105.993 88.272C110.924 87.9327 113.574 87.703 113.944 87.577C114.491 87.3813 114.764 86.9947 114.764 86.4125ZM110.963 85.9304C109.2 86.1651 107.683 86.282 106.415 86.282C106.106 86.282 105.955 86.1997 105.955 86.0345C105.955 85.3134 106.258 84.6663 106.871 84.0841C107.484 83.5059 108.183 83.2152 108.974 83.2152C109.673 83.2152 110.307 83.4626 110.868 83.9666C111.428 84.4661 111.71 85.0443 111.71 85.6957C111.71 85.7915 111.458 85.8698 110.963 85.9304ZM56.0595 86.4125C56.0595 84.9095 55.5337 83.6278 54.4822 82.5765C53.4006 81.4949 52.0581 80.9563 50.4466 80.9563C48.7174 80.9563 47.2577 81.5772 46.0674 82.8239C44.9378 84.0231 44.3732 85.4308 44.3732 87.0466C44.3732 88.8583 44.9639 90.3099 46.1454 91.3957C47.3272 92.4819 48.9088 93.0251 50.8982 93.0251C52.8664 93.0251 54.4822 92.4119 55.7378 91.187C55.877 91.0567 55.9465 90.9653 55.9465 90.9177C55.9465 90.8785 55.7943 90.5963 55.4945 90.0662C55.1952 89.5361 55.0341 89.2627 55.0126 89.2496C54.9911 89.2319 54.9472 89.2237 54.8781 89.2237C54.7432 89.3278 54.604 89.4279 54.4691 89.5275C53.3353 90.3313 52.0973 90.731 50.7417 90.731C49.9558 90.731 49.2171 90.4964 48.5353 90.0357C47.8138 89.5493 47.3968 88.963 47.2885 88.272C52.2188 87.9327 54.8692 87.703 55.2382 87.577C55.7859 87.3813 56.0595 86.9947 56.0595 86.4125ZM52.2584 85.9304C50.4942 86.1651 48.978 86.282 47.7097 86.282C47.401 86.282 47.2492 86.1997 47.2492 86.0345C47.2492 85.3134 47.5532 84.6663 48.1655 84.0841C48.7786 83.5059 49.4776 83.2152 50.2682 83.2152C50.9682 83.2152 51.6023 83.4626 52.1627 83.9666C52.7231 84.4661 53.0056 85.0443 53.0056 85.6957C53.0056 85.7915 52.7534 85.8698 52.2584 85.9304ZM14.093 81.7077C13.4587 81.5904 13.0285 81.5295 12.7983 81.5295C12.6507 81.5295 12.529 81.7768 12.4377 82.2723C12.3422 82.7681 12.2683 83.0154 12.2162 83.0154L12.1423 82.9764C11.8339 82.6808 11.6035 82.4549 11.4602 82.294C10.4828 81.4642 9.34031 81.0472 8.0284 81.0472C6.17315 81.0472 4.67433 81.6426 3.53623 82.8239C2.44588 83.9625 1.90284 85.4004 1.90284 87.1426C1.90284 88.6892 2.44143 90.0401 3.52322 91.2001C4.66134 92.4163 6.06019 93.0251 7.71975 93.0251C8.39767 93.0251 9.07526 92.864 9.75289 92.5511C10.1875 92.3556 10.6611 92.069 11.1651 91.6951C11.5775 91.3866 11.8079 91.2351 11.8601 91.2351C11.9337 91.2351 12.0162 91.5085 12.1032 92.0558C12.1857 92.6076 12.3117 92.881 12.4769 92.881C12.707 92.881 13.0588 92.8554 13.537 92.8077C14.0105 92.7553 14.3666 92.7294 14.6011 92.7294C14.8358 92.7294 14.9488 92.6161 14.9399 92.386L14.9271 92.2254C14.7141 88.7806 14.6057 87.0207 14.6057 86.9425C14.6057 85.6392 14.7751 84.0926 15.1094 82.294C15.1356 82.1858 15.1486 82.1158 15.1486 82.0857C15.1486 81.9725 14.7968 81.851 14.093 81.7077ZM10.9216 89.4492C10.2439 90.1921 9.40549 90.5656 8.4018 90.5656C7.37649 90.5656 6.52067 90.2007 5.83453 89.4711C5.17406 88.7716 4.84383 87.9505 4.84383 86.9993C4.84383 86.0432 5.17406 85.2134 5.83453 84.5052C6.52067 83.7714 7.37649 83.4017 8.4018 83.4017C9.43155 83.4017 10.2743 83.7755 10.9346 84.5189C11.5604 85.2093 11.873 86.0345 11.873 86.9993C11.873 87.9327 11.5559 88.7496 10.9216 89.4492ZM42.5614 81.6121C42.2835 81.6121 41.8752 81.6294 41.3277 81.6555C40.7804 81.6818 40.3632 81.6945 40.0809 81.6945C39.9506 81.6945 39.8897 81.7554 39.8897 81.8729C39.8897 82.1334 39.9157 82.52 39.9722 83.0368C40.0289 83.554 40.0549 83.9449 40.0549 84.2013C40.0549 85.1571 40.02 85.8308 39.9506 86.2261C39.9026 86.5126 39.5073 87.2162 38.7691 88.3285C38.0261 89.467 37.5568 90.0357 37.37 90.0357C37.1745 90.0357 36.6618 89.4538 35.8365 88.2934C35.0067 87.1339 34.5722 86.4039 34.533 86.1086C34.4463 85.5132 34.4029 84.8527 34.4029 84.1318C34.4029 83.8798 34.4202 83.5109 34.4549 83.0196C34.4898 82.5287 34.5071 82.1594 34.5071 81.9075C34.5071 81.751 34.4289 81.6727 34.2726 81.6727C33.9901 81.6727 33.5688 81.6599 33.0083 81.638C32.4478 81.6122 32.0263 81.6036 31.7442 81.6036C31.5574 81.6036 31.4615 81.6904 31.4615 81.8595C31.4615 82.1809 31.453 82.6634 31.4355 83.3062C31.4182 83.9493 31.4095 84.4314 31.4095 84.7527C31.4095 85.7915 31.5137 86.5517 31.7182 87.0466C31.8745 87.4073 32.5957 88.4153 33.8903 90.0706C35.215 91.7733 36.0013 92.6594 36.2403 92.7294C36.4187 92.7767 36.7967 92.7986 37.37 92.7986C37.9696 92.7986 38.3301 92.7767 38.4474 92.7294C38.6994 92.6334 39.4682 91.7124 40.763 89.9665C42.0185 88.2544 42.7136 87.2248 42.8439 86.8733C42.9177 86.6908 42.9569 86.0477 42.9569 84.9441C42.9569 82.7239 42.8266 81.6121 42.5614 81.6121ZM78.6197 90.3531C78.3676 90.3531 77.9898 90.4049 77.4771 90.5136C76.9601 90.6179 76.5735 90.6701 76.304 90.6701C75.6657 90.6701 75.2398 90.4655 75.0357 90.0574C74.8966 89.7927 74.827 89.3236 74.827 88.65V86.8951C74.827 85.8912 74.8485 85.1135 74.8924 84.553C74.9269 84.1058 74.9788 83.8843 75.0484 83.8843C75.3874 83.8843 75.909 83.9057 76.5996 83.9493C77.2945 83.993 77.8118 84.0149 78.1546 84.0149C78.3937 84.0149 78.5151 83.9407 78.5151 83.7884C78.5151 83.6715 78.5109 83.4934 78.5025 83.2501C78.4936 83.0064 78.489 82.8239 78.489 82.7071C78.489 82.607 78.5067 82.4505 78.5329 82.2418C78.5632 82.0333 78.5805 81.8859 78.5805 81.79C78.5805 81.6945 78.5067 81.6514 78.3634 81.6514H75.279C75.0484 81.6514 74.9312 81.5339 74.9312 81.3078C74.9312 80.9648 74.9573 80.4436 75.0138 79.7572C75.0703 79.0666 75.0964 78.5494 75.0964 78.2019C75.0964 78.054 75.0011 77.9672 74.8055 77.9455C73.2716 77.7025 72.4637 77.5807 72.3899 77.5807C72.1466 77.5807 72.0294 77.8672 72.0294 78.4363C72.0294 78.7619 72.0378 79.2399 72.0597 79.8874C72.0812 80.53 72.0947 81.0082 72.0947 81.3211C72.0947 81.6253 71.8945 81.7859 71.5036 81.8032C71.2953 81.8119 71.0866 81.8119 70.8737 81.8119C70.6215 81.8551 70.487 81.9684 70.4609 82.1549C70.4263 82.4073 70.409 82.6462 70.409 82.8722C70.409 83.4758 70.5001 83.7973 70.6784 83.8365C70.9862 83.8452 71.2991 83.8493 71.6166 83.8493C71.9687 83.8711 72.142 84.0448 72.142 84.3665C72.142 85.0311 72.1251 86.0345 72.0947 87.3727C72.0597 88.7065 72.042 89.7099 72.042 90.375C72.042 92.0388 73.0418 92.8686 75.0484 92.8686C76.5558 92.8686 77.6596 92.7163 78.3634 92.4119C78.489 92.3556 78.5721 92.3037 78.6066 92.2472C78.6239 92.2162 78.637 92.1299 78.6454 91.9866C78.6543 91.8779 78.6762 91.6391 78.7192 91.2692C78.7546 90.9745 78.7719 90.7352 78.7719 90.5656C78.7719 90.4222 78.7192 90.3531 78.6197 90.3531ZM101.471 81.4384C100.95 81.4384 100.52 81.4862 100.185 81.5772C99.7851 81.6818 99.39 81.8378 99.0034 82.0507C98.6513 82.2548 98.3038 82.4549 97.9522 82.6588L97.8868 82.6852C97.7738 82.6852 97.7001 82.4549 97.6562 81.9902C97.6136 81.5347 97.5238 81.3005 97.3918 81.2951C97.4251 81.3005 96.9976 81.3824 96.1016 81.5295C95.5281 81.5945 95.0804 81.6426 94.7675 81.6727C94.6545 81.7118 94.598 81.7768 94.598 81.8729C94.598 81.9033 94.6068 81.9511 94.6241 82.0162C95.0196 83.1892 95.2153 84.7445 95.2153 86.6818C95.2153 87.3249 95.2064 88.2852 95.1849 89.5666C95.1626 90.8439 95.1499 91.7997 95.1499 92.4338C95.1499 92.6293 95.2499 92.7294 95.4455 92.7294C95.7103 92.7294 96.1142 92.7336 96.6531 92.7426C97.1915 92.7467 97.5955 92.7512 97.8607 92.7512C98.0563 92.7512 98.1563 92.6471 98.1563 92.4338C98.1563 91.9947 98.139 91.3303 98.0998 90.4354C98.0606 89.5402 98.0433 88.8756 98.0433 88.4367V87.1426C98.0433 86.0781 98.1301 85.374 98.3127 85.0352C98.6125 84.4793 99.2985 84.2013 100.38 84.2013C100.567 84.2013 100.845 84.2186 101.206 84.2532C101.571 84.2883 101.845 84.3056 102.023 84.3056C102.17 84.3056 102.253 84.2186 102.279 84.0361C102.409 83.3325 102.474 82.5463 102.474 81.6859C102.474 81.5212 102.14 81.4384 101.471 81.4384ZM92.5041 82.0593C92.5041 81.7859 92.378 81.6514 92.1305 81.6514H90.0105C89.663 81.6514 89.4851 81.8424 89.4851 82.2248C89.4851 85.7781 89.4632 87.8462 89.4198 88.4367C89.3978 88.9061 88.9939 89.397 88.2122 89.9051C87.4777 90.3923 86.8393 90.6355 86.3004 90.6355C85.0317 90.6355 84.2154 90.2098 83.846 89.367C83.6331 88.893 83.5243 87.9719 83.5243 86.5994C83.5243 86.0345 83.5374 85.5173 83.5635 85.0482C83.5724 84.7355 83.6373 84.1972 83.7545 83.4367C83.8675 82.7239 83.924 82.2117 83.924 81.9075C83.924 81.7378 83.8372 81.6514 83.6677 81.6514C83.4202 81.6514 83.0466 81.6467 82.5469 81.638C82.0519 81.6294 81.6783 81.6253 81.4304 81.6253C81.2263 81.6253 81.0826 81.7768 81.0088 82.0857C80.6917 83.3453 80.531 84.8878 80.531 86.7081C80.531 88.7238 80.7225 90.1184 81.096 90.8962C81.7041 92.1472 82.9555 92.7767 84.8495 92.7767C86.2439 92.7767 87.656 92.2081 89.0896 91.0695C89.1722 91.0004 89.2372 90.9653 89.2806 90.9653C89.3586 90.9653 89.4067 91.2565 89.4282 91.8473C89.4501 92.4338 89.5108 92.7294 89.6154 92.7294C91.2834 92.7294 92.1524 92.7204 92.2216 92.7075C92.3827 92.6594 92.4649 92.5552 92.4649 92.3987C92.4649 91.8255 92.4476 90.9696 92.4088 89.8318C92.3696 88.6892 92.3519 87.8331 92.3519 87.2599C92.3519 86.6777 92.3738 85.813 92.4261 84.6529C92.478 83.4977 92.5041 82.633 92.5041 82.0593ZM69.1272 87.7894C69.1272 87.5379 69.1318 87.164 69.1449 86.6601C69.158 86.1564 69.1622 85.7871 69.1622 85.5437C69.1622 84.1404 68.9446 83.1238 68.5103 82.4941C67.9196 81.6426 66.8162 81.2124 65.2084 81.2124C64.366 81.2124 63.497 81.4642 62.5976 81.9684C61.8719 82.4464 61.2858 82.8458 60.8381 83.167C60.6863 82.672 60.5859 82.1809 60.5429 81.6945C60.5252 81.5731 60.4948 81.508 60.443 81.508C60.3995 81.508 59.9172 81.5772 58.9959 81.7118C58.0754 81.851 57.5842 81.9251 57.5235 81.9333C57.4147 81.9643 57.3582 82.0162 57.3582 82.0944C57.3582 82.129 57.3717 82.1767 57.3974 82.2509C57.7845 83.6627 57.9755 85.2007 57.9755 86.8733C57.9755 87.4987 57.962 88.4326 57.9451 89.6709C57.9228 90.9089 57.9101 91.8387 57.9101 92.4601C57.9101 92.6379 58.0012 92.7294 58.1796 92.7294C58.4532 92.7294 58.8656 92.7336 59.4133 92.7426C59.9606 92.7467 60.3734 92.7512 60.647 92.7512C60.8077 92.7512 60.8903 92.6553 60.8903 92.4601V85.4004C60.8903 85.0402 61.2947 84.6271 62.0979 84.1662C62.8628 83.7278 63.4577 83.5059 63.8836 83.5059C64.8091 83.5059 65.4433 83.7278 65.7865 84.1662C66.069 84.5361 66.2077 85.1657 66.2077 86.0605C66.2077 86.3735 66.2124 86.8424 66.2208 87.4638C66.2296 88.0892 66.2339 88.5591 66.2339 88.8715C66.2339 89.2627 66.2208 89.849 66.1946 90.6355C66.1685 91.4176 66.1554 92.0039 66.1554 92.386C66.1554 92.6161 66.2339 92.7294 66.3903 92.7294C66.6728 92.7294 67.094 92.7336 67.6544 92.7426C68.2148 92.7467 68.6364 92.7512 68.9189 92.7512C69.0926 92.7512 69.1748 92.6685 69.1748 92.4947C69.1748 91.9688 69.1664 91.1829 69.1491 90.1398C69.1318 89.0972 69.1272 88.3153 69.1272 87.7894ZM322.142 82.2509C321.664 82.2509 321.274 82.2899 320.965 82.3723C320.6 82.4592 320.239 82.5984 319.884 82.7807C319.566 82.9545 319.244 83.1329 318.923 83.3062L318.862 83.328C318.762 83.328 318.693 83.1283 318.654 82.7288C318.615 82.3335 318.534 82.1339 318.411 82.129C318.441 82.1334 318.049 82.199 317.229 82.3332C316.707 82.3854 316.3 82.4246 316.008 82.4549C315.908 82.4897 315.856 82.5463 315.856 82.6243C315.856 82.6547 315.865 82.6939 315.878 82.7503C316.238 83.767 316.421 85.1135 316.421 86.786C316.421 87.3422 316.412 88.1765 316.391 89.2797C316.373 90.3872 316.36 91.2133 316.36 91.7651C316.36 91.9342 316.451 92.0166 316.633 92.0166C316.873 92.0166 317.241 92.021 317.737 92.0298C318.228 92.0339 318.598 92.0388 318.84 92.0388C319.019 92.0388 319.11 91.9474 319.11 91.7651C319.11 91.3825 319.092 90.8088 319.058 90.0357C319.023 89.2578 319.006 88.6846 319.006 88.3025V87.1858C319.006 86.2648 319.088 85.6565 319.253 85.3658C319.527 84.8837 320.157 84.6402 321.143 84.6402C321.312 84.6402 321.569 84.6575 321.899 84.6877C322.234 84.7185 322.481 84.7313 322.646 84.7313C322.781 84.7313 322.859 84.6575 322.881 84.497C322.998 83.8884 323.059 83.2111 323.059 82.4633C323.059 82.3201 322.75 82.2509 322.142 82.2509ZM327.121 82.4115C326.973 82.4115 326.752 82.4291 326.457 82.4633C326.165 82.4982 325.943 82.5156 325.796 82.5156C325.644 82.5156 325.426 82.4982 325.131 82.4633C324.836 82.4291 324.618 82.4115 324.479 82.4115C324.315 82.4115 324.232 82.4724 324.232 82.5856C324.232 83.1151 324.275 83.9103 324.367 84.966C324.458 86.0262 324.501 86.821 324.501 87.3464C324.501 87.8245 324.488 88.5281 324.462 89.4711C324.432 90.4095 324.419 91.1132 324.419 91.5826C324.419 91.8606 324.501 91.9998 324.667 91.9998H326.96C327.099 91.9998 327.169 91.9257 327.169 91.7865C327.169 91.2955 327.156 90.5573 327.134 89.5712C327.112 88.585 327.099 87.8416 327.099 87.3464C327.099 86.821 327.134 86.0262 327.212 84.9701C327.286 83.9188 327.321 83.1283 327.321 82.607C327.321 82.4765 327.255 82.4115 327.121 82.4115ZM314.518 89.9619C314.288 89.9619 313.94 90.0097 313.471 90.1007C313.002 90.1921 312.646 90.2397 312.402 90.2397C311.816 90.2397 311.429 90.0615 311.238 89.7099C311.116 89.4798 311.051 89.0713 311.051 88.4891V86.9733C311.051 86.104 311.073 85.4308 311.112 84.9488C311.142 84.562 311.19 84.3665 311.251 84.3665C311.564 84.3665 312.037 84.3838 312.671 84.4228C313.306 84.4578 313.779 84.4793 314.093 84.4793C314.314 84.4793 314.422 84.4138 314.422 84.2837C314.422 84.184 314.418 84.0275 314.409 83.8147C314.405 83.6059 314.4 83.4499 314.4 83.3503C314.4 83.263 314.414 83.1283 314.44 82.9454C314.47 82.7681 314.483 82.6374 314.483 82.5547C314.483 82.4724 314.414 82.4332 314.283 82.4332H311.464C311.251 82.4332 311.147 82.3332 311.147 82.1376C311.147 81.8378 311.173 81.3906 311.22 80.7957C311.273 80.1962 311.298 79.7482 311.298 79.4529C311.298 79.3224 311.207 79.2491 311.03 79.2272C309.627 79.0185 308.892 78.9142 308.818 78.9142C308.601 78.9142 308.492 79.1618 308.492 79.6571C308.492 79.9351 308.501 80.3527 308.518 80.908C308.54 81.4642 308.549 81.877 308.549 82.1466C308.549 82.4115 308.37 82.5506 308.01 82.5633C307.823 82.5724 307.628 82.5765 307.433 82.5765C307.206 82.6114 307.08 82.7071 307.059 82.8722C307.028 83.0892 307.011 83.2935 307.011 83.4886C307.011 84.0149 307.094 84.2924 307.259 84.3273C307.541 84.3314 307.823 84.336 308.115 84.336C308.436 84.3578 308.596 84.5052 308.596 84.7836C308.596 85.3613 308.58 86.2261 308.549 87.3856C308.518 88.5413 308.501 89.406 308.501 89.9833C308.501 91.4217 309.418 92.1385 311.251 92.1385C312.628 92.1385 313.64 92.008 314.283 91.7432C314.4 91.6951 314.475 91.6477 314.505 91.5999C314.522 91.5735 314.531 91.4999 314.54 91.3784C314.548 91.2825 314.571 91.0741 314.609 90.7571C314.644 90.5005 314.657 90.2962 314.657 90.1444C314.657 90.0225 314.609 89.9619 314.518 89.9619ZM300.008 77.8239C300.008 77.6806 299.943 77.6106 299.808 77.6106C299.53 77.6106 299.1 77.6324 298.531 77.6757C297.958 77.7198 297.527 77.7416 297.236 77.7416C297.11 77.7416 297.049 77.8239 297.049 77.9891C297.049 78.2189 297.062 78.5626 297.084 79.0144C297.11 79.4707 297.119 79.8094 297.119 80.031V83.328C297.119 83.4017 297.088 83.4499 297.027 83.4717C296.697 83.2152 296.363 82.9586 296.028 82.7071C295.29 82.2072 294.43 81.9552 293.443 81.9552C291.806 81.9552 290.477 82.4724 289.46 83.5018C288.491 84.4838 288.004 85.6998 288.004 87.1426C288.004 88.5368 288.487 89.7227 289.446 90.7047C290.467 91.7519 291.766 92.2732 293.348 92.2732C294.742 92.2732 295.976 91.7692 297.049 90.7657C297.119 90.7006 297.18 90.6528 297.227 90.6355C297.266 90.6396 297.293 90.8785 297.314 91.352C297.332 91.8214 297.397 92.0602 297.505 92.0602C297.623 92.0602 297.797 92.0471 298.022 92.0298C298.253 92.008 298.422 91.9998 298.54 91.9998C298.517 91.9998 298.67 92.008 299 92.0298C299.137 92.0364 299.259 92.0396 299.364 92.0396C299.47 92.0396 299.56 92.0364 299.634 92.0298C299.852 92.008 299.96 91.9647 299.951 91.8952L299.938 91.7651C299.808 90.3872 299.739 88.359 299.739 85.6784C299.739 84.8096 299.787 83.5018 299.873 81.7554C299.964 80.0087 300.008 78.6968 300.008 77.8239ZM296.228 89.2405C295.616 89.8837 294.842 90.2048 293.9 90.2048C292.97 90.2048 292.183 89.8883 291.554 89.2496C290.932 88.6455 290.624 87.9376 290.624 87.1248C290.624 86.2692 290.92 85.5351 291.519 84.9268C292.145 84.2754 292.935 83.9493 293.9 83.9493C294.816 83.9493 295.585 84.2796 296.202 84.9356C296.784 85.5524 297.071 86.2692 297.071 87.0817C297.071 87.9159 296.789 88.6368 296.228 89.2405ZM326.93 78.9316C326.613 78.6968 326.235 78.5755 325.796 78.5755C325.357 78.5755 324.979 78.6928 324.667 78.9225C324.332 79.1663 324.162 79.4747 324.162 79.8482C324.162 80.6824 324.706 81.0996 325.796 81.0996C326.869 81.0996 327.404 80.6824 327.404 79.8482C327.404 79.4747 327.247 79.1709 326.93 78.9316ZM335.931 81.977C334.815 81.977 333.703 82.4592 332.608 83.4326C332.538 83.4977 332.473 83.545 332.421 83.5718C332.374 83.5194 332.347 83.4626 332.347 83.4107C332.334 83.1456 332.312 82.8762 332.291 82.607C332.252 82.1985 332.164 81.9984 332.034 81.9984C331.939 81.9984 331.509 82.0552 330.74 82.1767C330.17 82.2418 329.731 82.2767 329.436 82.2899C329.358 82.3118 329.319 82.3591 329.319 82.4332C329.319 82.4592 329.328 82.5156 329.341 82.5984C329.575 83.993 329.693 85.4873 329.693 87.0817C329.693 87.9505 329.688 89.2536 329.671 90.9913C329.654 92.7253 329.645 94.0281 329.645 94.8973C329.645 95.0534 329.737 95.1407 329.919 95.1621C330.136 95.188 330.848 95.2012 332.056 95.2012C332.234 95.2012 332.325 95.0925 332.325 94.8795L332.339 92.008C332.339 91.2911 332.343 90.9089 332.347 90.8699C332.364 90.7788 332.395 90.7266 332.443 90.7047C332.773 90.9786 333.099 91.2433 333.429 91.5085C334.159 92.0339 335.01 92.2946 335.979 92.2946C337.539 92.2946 338.842 91.7605 339.889 90.6961C340.892 89.6836 341.396 88.4935 341.396 87.1248C341.396 85.752 340.88 84.562 339.854 83.554C338.79 82.5024 337.482 81.977 335.931 81.977ZM337.8 89.2187C337.191 89.9051 336.435 90.249 335.544 90.249C334.611 90.249 333.846 89.9182 333.243 89.2578C332.695 88.65 332.421 87.9327 332.421 87.1034C332.421 86.2911 332.686 85.5782 333.221 84.966C333.798 84.2883 334.542 83.9493 335.453 83.9493C336.375 83.9493 337.147 84.2796 337.765 84.9356C338.351 85.5524 338.647 86.2692 338.647 87.0817C338.647 87.8723 338.364 88.585 337.8 89.2187ZM338.751 50.7584C331.283 37.2215 326.778 29.2975 325.235 26.9906C324.732 26.2603 324.179 25.8998 323.58 25.8998C322.759 25.8998 321.525 25.939 319.87 26.0133C318.215 26.0913 316.964 26.1301 316.112 26.1301C315.23 26.1301 313.901 26.074 312.12 25.9652C310.338 25.8568 309.022 25.7999 308.175 25.7999C307.671 25.7999 307.228 26.2173 306.85 27.0556C306.19 28.5069 301.998 36.5308 294.282 51.1231C287.162 64.6124 283.599 71.6463 283.599 72.2195C283.599 72.8581 286.011 73.1756 290.832 73.1756C296.941 73.1756 300.533 73.0883 301.606 72.9108C302.458 72.7584 303.179 71.7677 303.779 69.9391C304.439 67.9358 305.039 66.759 305.572 66.407C305.921 66.211 308.774 66.1114 314.127 66.1114C322.068 66.1114 326.291 66.1896 326.795 66.342C327.391 66.5635 328.229 68.2575 329.298 71.4248C329.58 72.2631 330.258 72.7584 331.33 72.9108C332.621 73.0883 335.519 73.1756 340.028 73.1756C344.942 73.1756 347.874 73.0883 348.816 72.9108C349.602 72.7584 349.998 72.4846 349.998 72.0848C349.998 71.4939 346.249 64.3823 338.751 50.7584ZM321.691 54.5556C321.469 54.9073 320.317 55.0855 318.241 55.0855C316.004 55.0855 314.396 55.0638 313.419 55.016C311.529 54.9727 310.587 54.7553 310.587 54.3555C310.587 53.765 311.434 51.7488 313.136 48.3171C314.709 45.0805 315.829 42.9778 316.49 42.0088C317.155 42.8909 318.193 44.9152 319.609 48.0869C321.06 51.3664 321.786 53.3651 321.786 54.0953C321.786 54.2905 321.751 54.4469 321.691 54.5556ZM347.752 86.8514C347.501 86.6469 346.905 86.317 345.962 85.8607C345.328 85.5524 345.015 85.2398 345.015 84.9356C345.015 84.5098 345.315 84.2232 345.919 84.0799C346.427 84.0275 346.931 83.9707 347.431 83.9103C347.583 83.8884 347.657 83.8406 347.657 83.767C347.657 83.6715 347.583 83.3934 347.439 82.9327C347.292 82.4724 347.196 82.1941 347.144 82.1076C347.097 82.0203 347.014 81.977 346.905 81.977C345.684 81.977 344.672 82.229 343.872 82.7371C342.986 83.3062 342.543 84.1012 342.543 85.1179C342.543 85.8999 342.869 86.5299 343.521 87.0123C343.677 87.129 344.285 87.4378 345.341 87.9376C345.993 88.2503 346.319 88.5932 346.319 88.967C346.319 89.7535 345.576 90.1444 344.094 90.1444C344.103 90.1444 343.986 90.1356 343.742 90.1139C343.649 90.1052 343.567 90.1007 343.494 90.1007C343.422 90.1007 343.36 90.1052 343.308 90.1139C343.169 90.1444 343.099 90.2007 343.099 90.288C343.099 90.4313 343.121 90.6528 343.165 90.9482C343.204 91.2479 343.23 91.4736 343.23 91.6218C343.23 91.8996 343.295 92.0649 343.425 92.1212C343.491 92.1385 343.755 92.1512 344.224 92.1512C345.441 92.1512 346.47 91.8733 347.314 91.3174C348.247 90.7047 348.712 89.8968 348.712 88.8847C348.712 88.0546 348.391 87.3773 347.752 86.8514ZM276.812 55.3347C276.784 55.3355 276.76 55.3416 276.731 55.3416C276.799 55.3416 276.825 55.3396 276.812 55.3347ZM246.594 77.2417C246.563 77.1676 246.507 77.133 246.429 77.133C245.616 77.133 244.83 77.2634 244.07 77.5197C243.223 77.8022 242.58 78.1974 242.141 78.6968C241.65 79.2573 241.403 80.1352 241.403 81.3338C241.403 81.6077 241.415 81.9593 241.437 82.3942C240.442 82.4414 239.947 82.5375 239.947 82.6765C239.947 82.8239 239.956 83.0454 239.969 83.3453C239.986 83.6408 239.995 83.8623 239.995 84.0098C239.995 84.2405 240.003 84.3665 240.029 84.3879C240.055 84.4204 240.248 84.4381 240.609 84.4381C240.683 84.4381 240.763 84.4377 240.851 84.436C240.862 84.4357 240.873 84.4357 240.884 84.4357C241.34 84.4357 241.568 84.5228 241.568 84.7012V91.7041C241.568 91.9125 241.668 92.0166 241.871 92.0166H244.022C244.179 92.0166 244.257 91.9257 244.257 91.7432C244.257 91.2692 244.239 90.5482 244.201 89.5885C244.161 88.6242 244.139 87.9027 244.139 87.4292V84.3879C244.404 84.3879 244.817 84.397 245.373 84.4228C245.929 84.4448 246.346 84.4578 246.62 84.4578C246.776 84.4578 246.855 84.3924 246.855 84.2664C246.855 84.0799 246.846 83.8016 246.829 83.4236C246.816 83.0454 246.807 82.7631 246.807 82.5765C246.807 82.4549 246.711 82.3942 246.524 82.3942C246.242 82.3942 245.825 82.3854 245.269 82.3723C244.713 82.3591 244.305 82.3508 244.044 82.3508C244.044 80.8866 244.239 79.9746 244.622 79.6139C244.856 79.3964 245.195 79.2618 245.643 79.2099C246.02 79.1791 246.399 79.149 246.785 79.1141C246.924 79.1009 246.994 79.0534 246.994 78.9752C246.994 78.9535 246.929 78.6619 246.802 78.1019C246.672 77.5456 246.603 77.259 246.594 77.2417ZM260.878 82.2509C260.4 82.2509 260.009 82.2899 259.705 82.3723C259.336 82.4592 258.975 82.5984 258.624 82.7807C258.302 82.9545 257.98 83.1329 257.659 83.3062L257.603 83.328C257.498 83.328 257.429 83.1283 257.39 82.7288C257.351 82.3339 257.27 82.1343 257.147 82.129C257.18 82.1334 256.788 82.199 255.969 82.3332C255.444 82.3854 255.035 82.4246 254.748 82.4549C254.648 82.4897 254.596 82.5463 254.596 82.6243C254.596 82.6547 254.601 82.6939 254.618 82.7503C254.979 83.767 255.157 85.1135 255.157 86.786C255.157 87.3422 255.148 88.1765 255.131 89.2797C255.109 90.3872 255.1 91.2133 255.1 91.7651C255.1 91.9342 255.191 92.0166 255.37 92.0166C255.613 92.0166 255.982 92.021 256.473 92.0298C256.968 92.0339 257.338 92.0388 257.581 92.0388C257.759 92.0388 257.85 91.9474 257.85 91.7651C257.85 91.3825 257.828 90.8088 257.794 90.0357C257.759 89.2578 257.742 88.6846 257.742 88.3025V87.1858C257.742 86.2648 257.824 85.6565 257.989 85.3658C258.263 84.8837 258.892 84.6402 259.884 84.6402C260.053 84.6402 260.305 84.6575 260.639 84.6877C260.969 84.7185 261.222 84.7313 261.386 84.7313C261.517 84.7313 261.595 84.6575 261.621 84.497C261.739 83.8884 261.795 83.2111 261.795 82.4633C261.795 82.3201 261.491 82.2509 260.878 82.2509ZM253.667 77.2417C253.636 77.1676 253.58 77.133 253.501 77.133C252.689 77.133 251.903 77.2634 251.143 77.5197C250.295 77.8022 249.653 78.1974 249.214 78.6968C248.723 79.2573 248.475 80.1352 248.475 81.3338C248.475 81.6077 248.488 81.9593 248.51 82.3942C247.515 82.4414 247.02 82.5375 247.02 82.6765C247.02 82.8239 247.024 83.0454 247.041 83.3453C247.055 83.6408 247.063 83.8623 247.063 84.0098C247.063 84.2405 247.076 84.3665 247.102 84.3879C247.128 84.4204 247.321 84.4381 247.682 84.4381C247.755 84.4381 247.836 84.4377 247.923 84.436C247.935 84.4357 247.946 84.4357 247.957 84.4357C248.413 84.4357 248.641 84.5228 248.641 84.7012V91.7041C248.641 91.9125 248.74 92.0166 248.945 92.0166H251.095C251.251 92.0166 251.329 91.9257 251.329 91.7432C251.329 91.2692 251.307 90.5482 251.268 89.5885C251.229 88.6242 251.212 87.9027 251.212 87.4292V84.3879C251.477 84.3879 251.89 84.397 252.446 84.4228C253.002 84.4448 253.414 84.4578 253.693 84.4578C253.849 84.4578 253.927 84.3924 253.927 84.2664C253.927 84.0799 253.919 83.8016 253.901 83.4236C253.888 83.0454 253.879 82.7631 253.879 82.5765C253.879 82.4549 253.784 82.3942 253.597 82.3942C253.315 82.3942 252.893 82.3854 252.342 82.3723C251.786 82.3591 251.377 82.3508 251.116 82.3508C251.116 80.8866 251.307 79.9746 251.694 79.6139C251.929 79.3964 252.268 79.2618 252.715 79.2099C253.093 79.1791 253.471 79.149 253.854 79.1141C253.997 79.1009 254.066 79.0534 254.066 78.9752C254.066 78.9535 254.001 78.6619 253.871 78.1019C253.745 77.5456 253.675 77.259 253.667 77.2417ZM285.841 82.4856C285.263 82.381 284.868 82.3332 284.655 82.3332C284.525 82.3332 284.412 82.5463 284.329 82.9718C284.242 83.4017 284.172 83.6108 284.129 83.6108L284.055 83.5841C283.778 83.3234 283.569 83.1283 283.434 82.9937C282.539 82.2723 281.496 81.916 280.298 81.916C278.599 81.916 277.226 82.4246 276.188 83.4499C275.193 84.436 274.693 85.6784 274.693 87.1858C274.693 88.5199 275.189 89.6926 276.175 90.6961C277.217 91.7473 278.495 92.2732 280.015 92.2732C280.636 92.2732 281.253 92.1385 281.87 91.8647C282.27 91.6951 282.7 91.4475 283.165 91.1219C283.538 90.8571 283.751 90.7266 283.799 90.7266C283.869 90.7266 283.942 90.9613 284.021 91.4393C284.099 91.9125 284.211 92.1512 284.364 92.1512C284.572 92.1512 284.898 92.1299 285.333 92.0861C285.767 92.0388 286.093 92.0166 286.305 92.0166C286.523 92.0166 286.627 91.9216 286.619 91.7214L286.605 91.5826C286.41 88.6022 286.31 87.0817 286.31 87.0123C286.31 85.8871 286.462 84.5488 286.77 82.9937C286.792 82.8982 286.805 82.8372 286.805 82.8112C286.805 82.7157 286.484 82.607 285.841 82.4856ZM282.939 89.1795C282.322 89.8227 281.553 90.1444 280.636 90.1444C279.698 90.1444 278.916 89.8318 278.29 89.2018C277.687 88.5978 277.382 87.8854 277.382 87.0644C277.382 86.2346 277.687 85.5173 278.29 84.9051C278.916 84.2664 279.698 83.9493 280.636 83.9493C281.579 83.9493 282.348 84.2705 282.952 84.9181C283.525 85.5132 283.812 86.2301 283.812 87.0644C283.812 87.8723 283.521 88.5759 282.939 89.1795ZM233.592 81.9333C231.971 81.9333 230.607 82.4414 229.504 83.4626C228.43 84.4578 227.892 85.6656 227.892 87.0817C227.892 88.5021 228.43 89.7099 229.504 90.7047C230.598 91.7391 231.962 92.2513 233.592 92.2513C235.212 92.2513 236.571 91.7341 237.666 90.6961C238.739 89.6926 239.278 88.4808 239.278 87.0644C239.278 85.6524 238.735 84.453 237.657 83.4626C236.559 82.4414 235.203 81.9333 233.592 81.9333ZM235.916 89.2018C235.298 89.8318 234.521 90.1444 233.592 90.1444C232.666 90.1444 231.893 89.8318 231.263 89.2018C230.667 88.6022 230.372 87.8986 230.372 87.0817C230.372 86.256 230.667 85.5483 231.254 84.9568C231.871 84.3446 232.653 84.0407 233.592 84.0407C234.53 84.0407 235.308 84.3487 235.916 84.966C236.506 85.5524 236.798 86.256 236.798 87.0817C236.798 87.8986 236.506 88.6022 235.916 89.2018ZM116.485 54.9682C116.485 54.651 116.85 54.3081 117.58 53.9429C121.164 52.0701 123.623 50.1458 124.957 48.1611C126.29 46.1751 126.955 43.5209 126.955 40.1886C126.955 35.1925 124.37 31.3741 119.196 28.724C114.63 26.378 108.73 25.2007 101.497 25.2007C98.0041 25.2007 93.3255 25.2484 87.4561 25.3395C78.7976 25.4744 73.9496 25.6135 72.9199 25.748C71.8902 25.8872 71.3906 26.1478 71.421 26.534L71.469 27.0164C72.0728 32.421 72.3726 39.9495 72.3726 49.5989C72.3726 52.1313 72.2073 55.9285 71.873 60.9894C71.5382 66.0554 71.3733 69.839 71.3733 72.3499C71.3733 72.919 71.8337 73.2756 72.7546 73.4098C73.6713 73.549 76.3997 73.614 80.9396 73.614C84.9014 73.614 87.8209 73.5704 89.6934 73.4795C90.1366 73.4581 90.5839 73.4317 91.0271 73.4098C91.3142 73.3406 91.4529 73.1147 91.4529 72.7276C91.4529 71.1769 91.2573 68.8614 90.8622 65.7812C90.4621 62.7012 90.2668 60.3857 90.2668 58.8347C90.2668 57.6705 90.5013 57.0883 90.979 57.0883C94.5837 57.0883 96.2943 57.0723 96.1244 57.0406C98.0433 57.1596 99.2833 57.6422 99.8285 58.4916C102.462 62.9403 104.399 66.3069 105.637 68.588C106.554 70.343 107.253 71.6636 107.731 72.5542C107.983 72.945 108.205 73.1707 108.396 73.2407C108.491 73.2838 108.887 73.3406 109.586 73.4098C111.076 73.549 113.9 73.614 118.053 73.614C122.911 73.614 125.938 73.549 127.146 73.4098C127.78 73.3406 128.097 73.2275 128.097 73.0664C128.097 72.4759 126.16 69.3045 122.289 63.5568C118.432 57.8308 116.5 54.9682 116.485 54.9682ZM97.687 48.3301C95.5627 48.3301 93.5338 48.2302 91.5963 48.0219C90.5839 47.9085 90.0758 47.7955 90.0758 47.6825C90.0758 47.1786 90.0585 46.4142 90.0278 45.3887C89.9928 44.3637 89.9801 43.5858 89.9801 43.0604C89.9801 39.3676 90.0758 37.13 90.2668 36.3567C90.4536 35.6964 92.0567 35.362 95.0715 35.362C99.2597 35.362 102.336 35.7748 104.303 36.5957C106.84 37.6692 108.109 39.5936 108.109 42.3782C108.109 46.3493 104.638 48.3301 97.687 48.3301ZM277.999 54.7553C278.342 54.2122 278.512 52.2877 278.512 48.9689C278.512 45.1585 277.999 43.2514 276.965 43.2514C274.806 43.2514 271.57 43.3298 267.265 43.4947C262.959 43.6558 259.727 43.738 257.568 43.738C256.282 43.738 255.33 43.6819 254.705 43.5731C253.201 43.2948 252.45 42.1218 252.45 40.0625C252.45 38.3553 253.028 37.313 254.188 36.9432C254.687 36.7914 256.443 36.7176 259.445 36.7176C261.825 36.7176 265.405 36.8567 270.18 37.1388C274.95 37.4213 278.512 37.5605 280.862 37.5605C281.488 37.5605 281.8 37.4432 281.8 37.2042C281.8 36.5527 281.644 35.6356 281.331 34.4411C280.988 33.0767 280.784 32.1558 280.724 31.6781C280.597 29.8144 280.532 28.42 280.532 27.4856C280.345 26.5993 279.467 26.152 277.904 26.152C275.397 26.152 271.635 26.2823 266.609 26.5428C261.586 26.8038 257.82 26.9341 255.313 26.9341C252.967 26.9341 249.453 26.8996 244.769 26.8342C240.091 26.7731 236.594 26.7385 234.273 26.7385C233.305 26.7385 232.835 27.0079 232.866 27.551L232.914 27.9419C232.944 28.4415 233.239 32.0386 233.804 38.7331C234.182 43.0646 234.369 46.6617 234.369 49.5205C234.369 51.9268 234.251 55.5417 234.017 60.364C233.783 65.1816 233.665 68.7964 233.665 71.2033C233.665 71.7199 234.117 72.0589 235.025 72.2113C236.715 72.4891 240.49 72.6324 246.342 72.6324C249.542 72.6324 250.952 72.6406 250.575 72.6604C252.448 72.5736 253.417 72.2673 253.481 71.746C253.48 71.7463 253.48 71.7468 253.479 71.7468C253.451 71.7468 253.293 70.1121 253.015 66.8455C252.637 62.8362 252.45 59.2953 252.45 56.2195C252.45 55.459 253.25 54.9946 254.844 54.8203C255.126 54.7989 256.365 54.7904 258.554 54.7904C265.348 54.7904 270.418 54.8944 273.772 55.1119C275.743 55.2375 276.754 55.3125 276.812 55.3347C277.39 55.3169 277.788 55.128 277.999 54.7553ZM268.046 81.9333C266.426 81.9333 265.062 82.4414 263.958 83.4626C262.885 84.4578 262.347 85.6656 262.347 87.0817C262.347 88.5021 262.885 89.7099 263.958 90.7047C265.053 91.7391 266.417 92.2513 268.046 92.2513C269.667 92.2513 271.027 91.7341 272.122 90.6961C273.194 89.6926 273.729 88.4808 273.729 87.0644C273.729 85.6524 273.19 84.453 272.108 83.4626C271.014 82.4414 269.658 81.9333 268.046 81.9333ZM270.37 89.2018C269.754 89.8318 268.977 90.1444 268.046 90.1444C267.121 90.1444 266.343 89.8318 265.718 89.2018C265.123 88.6022 264.827 87.8986 264.827 87.0817C264.827 86.256 265.118 85.5483 265.709 84.9568C266.326 84.3446 267.104 84.0407 268.046 84.0407C268.985 84.0407 269.758 84.3487 270.37 84.966C270.957 85.5524 271.253 86.256 271.253 87.0817C271.253 87.8986 270.957 88.6022 270.37 89.2018Z" fill="black"/>
</svg>
