<svg width="120" height="120" viewBox="0 0 120 120" fill="none" xmlns="http://www.w3.org/2000/svg">
<g clip-path="url(#clip0)">
<path d="M120 72.8276C120 72.8158 119.998 72.8046 119.998 72.7928L119.996 54.9096C119.996 51.0361 116.846 47.885 112.975 47.885H109.334L108.404 40.269H113.9C114.958 40.269 115.815 39.4112 115.815 38.3532V25.8726C115.815 24.8145 114.958 23.9568 113.9 23.9568C112.843 23.9568 111.985 24.8145 111.985 25.8726V36.4374H107.936L104.783 10.6243C104.407 7.54773 101.686 5.13764 98.5877 5.13764H92.843V1.94462C92.843 0.886581 91.9856 0.0288086 90.9281 0.0288086C89.8706 0.0288086 89.0132 0.886581 89.0132 1.94462V5.13764H30.9825V1.94462C30.9825 0.886581 30.1251 0.0288086 29.0676 0.0288086C28.01 0.0288086 27.1527 0.886581 27.1527 1.94462V5.13764H21.408C18.31 5.13764 15.5888 7.54773 15.2129 10.6245L12.0603 36.4376H8.11992V25.8728C8.11992 24.8148 7.26255 23.957 6.20502 23.957C5.14749 23.957 4.29013 24.8148 4.29013 25.8728V38.3535C4.29013 39.4115 5.14749 40.2693 6.20502 40.2693H11.5923L10.6621 47.8852H7.02128C3.14962 47.8852 0 51.0364 0 54.9099V86.7356C0 87.7936 0.857362 88.6514 1.91489 88.6514H2.61064V114.281C2.61064 117.451 5.18757 120.029 8.35532 120.029H23.568C26.7357 120.029 29.3127 117.451 29.3127 114.281V94.3988C29.3127 93.3408 28.4553 92.483 27.3978 92.483C26.3403 92.483 25.4829 93.3408 25.4829 94.3988V114.281C25.4829 115.338 24.624 116.197 23.568 116.197H8.35532C7.29932 116.197 6.44043 115.338 6.44043 114.281V88.6514H113.556V114.281C113.556 115.338 112.697 116.197 111.641 116.197H96.4282C95.3722 116.197 94.5133 115.338 94.5133 114.281V94.3988C94.5133 93.3408 93.6559 92.483 92.5984 92.483C91.5408 92.483 90.6835 93.3408 90.6835 94.3988V114.281C90.6835 117.451 93.2604 120.029 96.4282 120.029H111.641C114.809 120.029 117.386 117.451 117.386 114.281V88.6514H118.085C118.593 88.6514 119.08 88.4496 119.439 88.0902C119.798 87.731 120 87.2437 120 86.7353L119.998 72.8621C119.998 72.8506 120 72.8393 120 72.8276ZM7.02128 51.7166H15.3437C17.292 51.7166 19.4658 53.3622 19.9951 55.2381L22.9445 65.6849C23.232 66.7031 24.2911 67.296 25.3077 67.0078C26.3254 66.7202 26.9175 65.6614 26.63 64.6435L23.6809 54.1967C22.6818 50.6576 19.0197 47.8852 15.3437 47.8852H14.5205L19.0144 11.0892C19.1525 9.95986 20.2708 8.969 21.408 8.969H98.5879C99.7251 8.969 100.844 9.95961 100.982 11.0889L105.476 47.885H104.653C100.977 47.885 97.3146 50.6573 96.3153 54.1964L93.3661 64.6432C93.0789 65.6614 93.6707 66.72 94.6884 67.0076C95.7059 67.295 96.7642 66.7031 97.0517 65.6847L100.001 55.2379C100.53 53.3619 102.704 51.7164 104.653 51.7164H107.631C107.641 51.7164 112.975 51.7164 112.975 51.7164C114.735 51.7164 116.166 53.1486 116.166 54.9096L116.168 70.9115H3.82979V54.9096C3.82979 53.1491 5.26136 51.7166 7.02128 51.7166ZM116.17 84.8198H3.82979V74.7434H116.169L116.17 84.8198Z" fill="black"/>
<path d="M84.9387 95.0375H35.0575C33.9999 95.0375 33.1426 95.8952 33.1426 96.9533C33.1426 98.0113 33.9999 98.8691 35.0575 98.8691H84.9387C85.9962 98.8691 86.8536 98.0113 86.8536 96.9533C86.8536 95.8952 85.9962 95.0375 84.9387 95.0375Z" fill="black"/>
<path d="M37.8085 47.145C33.1541 47.145 29.3672 50.9337 29.3672 55.5904C29.3672 60.2471 33.1541 64.0358 37.8085 64.0358C42.463 64.0358 46.2499 60.2471 46.2499 55.5904C46.2499 50.9337 42.4633 47.145 37.8085 47.145ZM37.8085 60.2042C35.2658 60.2042 33.197 58.1344 33.197 55.5904C33.197 53.0465 35.2658 50.9766 37.8085 50.9766C40.3513 50.9766 42.4201 53.0465 42.4201 55.5904C42.4201 58.1344 40.3515 60.2042 37.8085 60.2042Z" fill="black"/>
<path d="M82.1875 47.145C77.533 47.145 73.7461 50.9337 73.7461 55.5904C73.7461 60.2471 77.533 64.0358 82.1875 64.0358C86.8419 64.0358 90.6288 60.2471 90.6288 55.5904C90.6288 50.9337 86.8419 47.145 82.1875 47.145ZM82.1875 60.2042C79.6447 60.2042 77.5759 58.1344 77.5759 55.5904C77.5759 53.0465 79.6447 50.9766 82.1875 50.9766C84.7302 50.9766 86.799 53.0465 86.799 55.5904C86.799 58.1344 84.7302 60.2042 82.1875 60.2042Z" fill="black"/>
<path d="M52.1659 47.145C51.1083 47.145 50.251 48.0028 50.251 49.0608V62.12C50.251 63.178 51.1083 64.0358 52.1659 64.0358C53.2234 64.0358 54.0808 63.178 54.0808 62.12V49.0608C54.0808 48.0028 53.2234 47.145 52.1659 47.145Z" fill="black"/>
<path d="M59.9979 47.145C58.9404 47.145 58.083 48.0028 58.083 49.0608V62.12C58.083 63.178 58.9404 64.0358 59.9979 64.0358C61.0554 64.0358 61.9128 63.178 61.9128 62.12V49.0608C61.9128 48.0028 61.0554 47.145 59.9979 47.145Z" fill="black"/>
<path d="M67.8299 47.145C66.7724 47.145 65.915 48.0028 65.915 49.0608V62.12C65.915 63.178 66.7724 64.0358 67.8299 64.0358C68.8875 64.0358 69.7448 63.178 69.7448 62.12V49.0608C69.7448 48.0028 68.8875 47.145 67.8299 47.145Z" fill="black"/>
<path d="M100.496 38.3535C100.496 37.2955 99.6383 36.4377 98.5808 36.4377H21.4149C20.3574 36.4377 19.5 37.2955 19.5 38.3535C19.5 39.4115 20.3574 40.2693 21.4149 40.2693H98.5808C99.6383 40.2693 100.496 39.4115 100.496 38.3535Z" fill="black"/>
</g>
<defs>
<clipPath id="clip0">
<rect width="120" height="120" fill="white"/>
</clipPath>
</defs>
</svg>
