<svg width="46" height="64" viewBox="0 0 46 64" fill="none" xmlns="http://www.w3.org/2000/svg">
<path d="M23 0C10.5935 0 0.5 10.0935 0.5 22.5C0.5 26.6917 1.66113 30.7825 3.85863 34.3315L21.7192 63.1136C22.0614 63.665 22.6641 64 23.3124 64C23.3174 64 23.3223 64 23.3273 64C23.9811 63.9949 24.5851 63.6495 24.921 63.0885L42.3264 34.0275C44.4026 30.5535 45.5 26.5674 45.5 22.5C45.5 10.0935 35.4065 0 23 0ZM39.1082 32.1022L23.284 58.5233L7.04588 32.3558C5.21675 29.4018 4.225 25.9937 4.225 22.5C4.225 12.1613 12.6613 3.725 23 3.725C33.3387 3.725 41.7625 12.1613 41.7625 22.5C41.7625 25.8901 40.8361 29.211 39.1082 32.1022Z" fill="#FC5521"/>
</svg>
