<svg width="120" height="120" viewBox="0 0 120 120" fill="none" xmlns="http://www.w3.org/2000/svg">
<path d="M60 0C36.7378 0 17.8125 18.9253 17.8125 42.1875C17.8125 50.047 19.9896 57.7172 24.1099 64.3716L57.5986 118.338C58.2401 119.372 59.3702 120 60.5857 120C60.5951 120 60.6042 120 60.6136 120C61.8396 119.99 62.9721 119.343 63.6019 118.291L96.237 63.8016C100.13 57.2878 102.188 49.8138 102.188 42.1875C102.188 18.9253 83.2622 0 60 0ZM90.203 60.1917L60.5325 109.731L30.086 60.667C26.6564 55.1283 24.7969 48.7383 24.7969 42.1875C24.7969 22.8023 40.6148 6.98438 60 6.98438C79.3852 6.98438 95.1797 22.8023 95.1797 42.1875C95.1797 48.544 93.4427 54.7706 90.203 60.1917Z" fill="#FC5521"/>
<path d="M60 21.0938C48.3689 21.0938 38.9062 30.5564 38.9062 42.1875C38.9062 53.7443 48.2149 63.2812 60 63.2812C71.9304 63.2812 81.0938 53.6173 81.0938 42.1875C81.0938 30.5564 71.6311 21.0938 60 21.0938ZM60 56.2969C52.2054 56.2969 45.8906 49.961 45.8906 42.1875C45.8906 34.4334 52.2459 28.0781 60 28.0781C67.7541 28.0781 74.0859 34.4334 74.0859 42.1875C74.0859 49.8476 67.9181 56.2969 60 56.2969Z" fill="#FC5521"/>
</svg>
