<svg width="120" height="120" viewBox="0 0 120 120" fill="none" xmlns="http://www.w3.org/2000/svg">
<path d="M115.312 55.3125H4.6875C2.09859 55.3125 0 57.4111 0 60C0 62.5889 2.09859 64.6875 4.6875 64.6875H115.312C117.901 64.6875 120 62.5889 120 60C120 57.4111 117.901 55.3125 115.312 55.3125Z" fill="black"/>
<path d="M115.312 17.8125H4.6875C2.09859 17.8125 0 19.9111 0 22.5C0 25.0889 2.09859 27.1875 4.6875 27.1875H115.312C117.901 27.1875 120 25.0889 120 22.5C120 19.9111 117.901 17.8125 115.312 17.8125Z" fill="black"/>
<path d="M115.312 92.8125H4.6875C2.09859 92.8125 0 94.9111 0 97.5C0 100.089 2.09859 102.188 4.6875 102.188H115.312C117.901 102.188 120 100.089 120 97.5C120 94.9111 117.901 92.8125 115.312 92.8125Z" fill="black"/>
</svg>
