<svg width="120" height="120" viewBox="0 0 120 120" fill="none" xmlns="http://www.w3.org/2000/svg">
<path d="M32.3037 14.6449C33.2747 14.6449 34.0615 13.8579 34.0615 12.8871V9.54303C34.0615 8.57225 33.2747 7.78522 32.3037 7.78522C31.3327 7.78522 30.5459 8.57225 30.5459 9.54303V12.8869C30.5459 13.8579 31.3329 14.6449 32.3037 14.6449Z" fill="black"/>
<path d="M30.5459 40.2917V43.6356C30.5459 44.6064 31.3327 45.3934 32.3037 45.3934C33.2747 45.3934 34.0615 44.6064 34.0615 43.6356V40.2917C34.0615 39.321 33.2747 38.5339 32.3037 38.5339C31.3327 38.5339 30.5459 39.321 30.5459 40.2917Z" fill="black"/>
<path d="M21.3719 18.1432C22.0576 18.8295 23.1707 18.83 23.8579 18.1432C24.5444 17.4567 24.5444 16.3437 23.8576 15.6572L21.493 13.2928C20.8068 12.6061 19.6937 12.6064 19.007 13.2928C18.3205 13.9793 18.3205 15.0924 19.0073 15.7789L21.3719 18.1432Z" fill="black"/>
<path d="M43.2365 35.0352C42.5497 34.3488 41.4369 34.3488 40.7502 35.0352C40.0637 35.7217 40.0637 36.8348 40.7502 37.5213L43.1148 39.8859C43.8015 40.5724 44.9144 40.5724 45.6011 39.8859C46.2878 39.1994 46.2876 38.0863 45.6011 37.3999L43.2365 35.0352Z" fill="black"/>
<path d="M15.2578 28.3472H18.6019C19.5729 28.3472 20.3597 27.5601 20.3597 26.5894C20.3597 25.6186 19.5729 24.8315 18.6019 24.8315H15.2578C14.2868 24.8315 13.5 25.6186 13.5 26.5894C13.5 27.5601 14.2868 28.3472 15.2578 28.3472Z" fill="black"/>
<path d="M44.248 26.5894C44.248 27.5601 45.0348 28.3472 46.0059 28.3472H49.3499C50.3209 28.3472 51.1077 27.5601 51.1077 26.5894C51.1077 25.6186 50.3209 24.8315 49.3499 24.8315H46.0059C45.0351 24.8315 44.248 25.6186 44.248 26.5894Z" fill="black"/>
<path d="M21.3718 35.0352L19.0072 37.3999C17.896 38.511 18.6988 40.4008 20.2503 40.4008C20.7001 40.4008 21.1501 40.2292 21.4934 39.8859L23.8581 37.5213C24.5445 36.8348 24.5445 35.7217 23.8581 35.0352C23.1713 34.3488 22.0585 34.3488 21.3718 35.0352Z" fill="black"/>
<path d="M43.2355 18.1432L45.6001 15.7789C46.2868 15.0924 46.2868 13.9796 45.6003 13.2928C44.9138 12.6064 43.8008 12.6061 43.1143 13.2928L40.7494 15.6572C40.0627 16.3437 40.0627 17.4565 40.7492 18.1432C41.4357 18.8297 42.5492 18.83 43.2355 18.1432Z" fill="black"/>
<path d="M119.995 106.38C119.866 103.153 116.857 100.524 113.488 101.077C112.134 98.4881 118.05 110.293 93.7486 61.691L85.4189 45.0316C83.7659 41.7253 79.0495 41.7363 77.4021 45.0316C76.6554 46.5253 71.7832 56.2696 70.7733 58.2888L60.8058 38.3538C59.3058 35.3524 55.0179 35.3524 53.5174 38.3538L45.3464 54.696C45.0007 55.3872 44.0112 55.3924 43.6631 54.696C42.1624 51.6949 37.875 51.6951 36.3745 54.696L23.1577 81.131L22.7995 80.4145C21.6916 78.1989 18.5463 78.2217 17.4499 80.4145V80.414C17.4499 80.4142 17.4499 80.414 17.4499 80.4142L3.30727 108.699H1.75781C0.786797 108.699 0 109.486 0 110.457C0 111.428 0.786797 112.215 1.75781 112.215C3.65602 112.215 88.3976 112.215 90.2902 112.215C91.2612 112.215 92.048 111.428 92.048 110.457C92.048 109.486 91.2612 108.699 90.2902 108.699H70.8178C70.0324 108.699 69.401 108.058 69.4116 107.272C69.4226 106.502 70.1374 105.799 70.9723 105.895C72.3115 106.051 73.5131 105.17 73.7653 103.846C74.0653 102.277 75.4437 101.14 77.0409 101.14C78.2161 101.14 79.3366 101.771 79.9399 102.83C80.5184 103.846 81.6961 104.364 82.8068 104.12C83.0623 104.064 83.6505 103.805 84.4594 104.066C86.5148 104.729 86.9074 102.881 88.8895 103.275C90.2702 103.55 91.5987 102.614 91.7836 101.23C92.1455 98.5228 94.4791 96.4811 97.212 96.4811C99.1852 96.4811 101.015 97.5536 101.986 99.2798C102.55 100.282 103.625 100.856 104.721 100.808C104.973 100.796 105.227 100.752 105.476 100.672C107.562 100.003 109.73 101.112 110.527 103.037C111.061 104.325 112.473 104.998 113.812 104.602C115.131 104.213 116.43 105.22 116.482 106.521C116.531 107.719 115.577 108.699 114.394 108.699H98.494C97.523 108.699 96.7362 109.486 96.7362 110.457C96.7362 111.428 97.523 112.215 98.494 112.215H114.394C117.576 112.215 120.123 109.577 119.995 106.38ZM80.5467 46.6035C80.9037 45.8903 81.919 45.8931 82.2743 46.6035C82.9523 47.9596 88.076 58.207 90.0436 62.1424L83.8479 68.4728C83.6977 68.6259 83.4537 68.6362 83.2915 68.4967L79.5366 65.2657C77.8601 63.8226 75.3251 64.049 73.9308 65.7684L71.9177 68.2516C71.7705 68.4335 71.5001 68.455 71.3255 68.2938L70.2152 67.2667C77.1837 53.3299 77.0039 53.6894 80.5467 46.6035ZM20.1244 82.9263L24.9225 92.5225L22.3704 95.1302L19.5567 92.7091C18.3021 91.6296 16.5401 91.6448 15.3232 92.5277L20.1244 82.9263ZM7.2382 108.699L12.3731 98.429C14.8924 99.0599 16.0214 97.0645 17.3393 95.4391L20.1462 97.8543C21.5102 99.0283 23.5634 98.9378 24.8201 97.6542L26.5861 95.8497L33.011 108.699H7.2382ZM45.5684 108.699H36.9417L25.1229 85.0614L39.5196 56.2685C39.7266 55.8548 40.312 55.8546 40.519 56.2687C42.162 59.5546 46.8499 59.5511 48.4915 56.2687L56.6625 39.926C56.8695 39.5123 57.4547 39.5123 57.6616 39.926L68.8085 62.2195C67.8124 64.2107 47.49 104.856 45.5684 108.699ZM106.529 96.9637C105.957 96.9785 105.391 97.057 104.839 97.1985C103.195 94.5688 100.305 92.9653 97.2122 92.9653C93.0872 92.9653 89.516 95.7984 88.5052 99.7099C87.3483 99.6838 86.1827 99.9796 85.1449 100.608C84.3302 100.406 83.4712 100.383 82.6451 100.539C81.3701 98.7264 79.2773 97.6237 77.0412 97.6237C74.0391 97.6237 71.4162 99.5798 70.5181 102.38C67.9922 102.533 65.9332 104.624 65.8964 107.222V107.222C65.8896 107.705 65.9672 108.247 66.0984 108.699H49.4995L68.5781 70.5412L68.9386 70.8747C68.9386 70.8747 68.9386 70.8747 68.9388 70.8747C70.6005 72.4117 73.223 72.2247 74.6494 70.4655L76.6624 67.9825C76.808 67.8032 77.0695 67.7805 77.2439 67.9303L80.9991 71.1616C82.5628 72.5069 84.9183 72.4059 86.3611 70.9319L91.7074 65.4691L107.471 96.997C107.163 96.9667 106.843 96.9555 106.529 96.9637Z" fill="black"/>
<path d="M32.3035 37.1067C36.2037 37.1067 39.7643 34.9643 41.596 31.5159C42.0511 30.6586 41.7253 29.5943 40.868 29.1386C40.0107 28.683 38.9466 29.0093 38.4907 29.8664C37.2708 32.1637 34.8999 33.5906 32.3035 33.5906C28.4428 33.5906 25.302 30.4497 25.302 26.5891C25.302 22.7285 28.4428 19.5876 32.3035 19.5876C34.8999 19.5876 37.2706 21.0145 38.4907 23.3118C38.9459 24.169 40.0102 24.4952 40.868 24.0396C41.7253 23.5842 42.0514 22.5201 41.596 21.6623C39.7646 18.2137 36.2037 16.0715 32.3035 16.0715C26.5043 16.0715 21.7861 20.7895 21.7861 26.5889C21.7861 32.3883 26.5043 37.1067 32.3035 37.1067Z" fill="black"/>
</svg>
