<svg width="61" height="60" viewBox="0 0 61 60" fill="none" xmlns="http://www.w3.org/2000/svg">
<path d="M47.3116 42.125L59.4401 29.9966C61.277 28.1596 61.277 25.1706 59.44 23.3336C58.7922 22.6859 58.0011 22.2676 57.1679 22.0767C57.4536 21.4625 57.6049 20.7884 57.6049 20.0907C57.6049 18.8322 57.1147 17.6491 56.225 16.7594C55.5271 16.0614 54.6485 15.6106 53.6949 15.4482C54.2317 13.8125 53.8522 11.9391 52.5539 10.6409C51.84 9.92711 50.9521 9.49212 50.0255 9.33311C50.1807 8.86199 50.2626 8.36449 50.2626 7.85399C50.2626 6.59549 49.7725 5.41236 48.8827 4.52261C47.9929 3.63286 46.8097 3.14274 45.5514 3.14274C44.7522 3.14274 43.9839 3.34099 43.3012 3.71324L43.1806 3.58361C41.6129 1.89886 39.3937 0.932739 37.0926 0.932739H27.2751C26.5847 0.932739 26.0249 1.49261 26.0249 2.18299V3.82249C26.0249 4.47861 26.1359 5.11736 26.3481 5.71799C25.7826 5.48311 25.1707 5.35974 24.54 5.35974C23.2815 5.35974 22.0984 5.84986 21.2085 6.73961C19.9095 8.03861 19.5304 9.91336 20.0685 11.5496C19.1411 11.7082 18.252 12.1435 17.5375 12.8579C16.6477 13.7477 16.1576 14.9309 16.1576 16.1892C16.1576 16.6987 16.2392 17.1955 16.3939 17.6656C15.4414 17.8285 14.5636 18.279 13.8664 18.9764C12.4317 20.411 12.1176 22.5485 12.924 24.2909C12.0701 24.486 11.2859 24.916 10.6511 25.5506C8.81424 27.3875 8.81424 30.3765 10.6511 32.2135L13.1454 34.7076L0.866111 46.9866C0.377861 47.4749 0.377861 48.2665 0.866111 48.7549C1.11024 48.9989 1.43024 49.1211 1.75011 49.1211C2.06999 49.1211 2.38999 48.999 2.63411 48.7549L15.0319 36.3571C15.7337 36.7576 16.5302 36.9719 17.3604 36.9719C18.6187 36.9719 19.8019 36.4817 20.6917 35.5919C21.6585 34.6252 22.1157 33.3394 22.0649 32.0704C22.1282 32.073 22.1916 32.0749 22.255 32.0749C23.4612 32.0747 24.6681 31.6155 25.5864 30.6972C26.4761 29.8074 26.9662 28.6242 26.9662 27.3659C26.9662 27.3022 26.9641 27.239 26.9616 27.1757C27.0242 27.1782 27.0869 27.1802 27.1496 27.1802C28.356 27.1802 29.5626 26.721 30.481 25.8026C31.3707 24.9127 31.8609 23.7296 31.8609 22.4712C31.8609 22.4076 31.8587 22.3444 31.8562 22.2811C31.9189 22.2836 31.9815 22.2856 32.0442 22.2856C33.2507 22.2856 34.4572 21.8264 35.3756 20.908C37.1016 19.182 37.2055 16.4391 35.6881 14.5902L43.9874 6.29099C44.405 5.87324 44.96 5.64336 45.5506 5.64336C46.1412 5.64336 46.6964 5.87324 47.114 6.29099C47.5316 6.70861 47.7615 7.26361 47.7615 7.85424C47.7615 8.44474 47.5316 8.99999 47.1139 9.41749L45.8902 10.6411L41.4505 15.0809C40.9622 15.5691 40.9622 16.3607 41.4505 16.8491C41.6946 17.0931 42.0146 17.2154 42.3345 17.2154C42.6544 17.2154 42.9744 17.0932 43.2185 16.8491L47.6582 12.4094C48.5201 11.5474 49.9227 11.5472 50.7849 12.4092C51.6469 13.2714 51.6469 14.6739 50.7849 15.536L49.5611 16.7597L46.3451 19.9757C45.8569 20.464 45.8569 21.2556 46.3451 21.744C46.5892 21.988 46.9092 22.1102 47.2291 22.1102C47.549 22.1102 47.869 21.9881 48.1131 21.744L51.3291 18.528C51.7467 18.1102 52.3019 17.8804 52.8924 17.8804C53.483 17.8804 54.0381 18.1102 54.4557 18.528C54.8734 18.9456 55.1032 19.5006 55.1032 20.0912C55.1032 20.6817 54.8734 21.237 54.4556 21.6545L52.776 23.3341L51.2396 24.8705C50.7514 25.3587 50.7514 26.1504 51.2396 26.6387C51.4837 26.8827 51.8037 27.005 52.1236 27.005C52.4435 27.005 52.7635 26.8829 53.0076 26.6387L54.5451 25.1012C55.4072 24.2406 56.809 24.2407 57.6706 25.1024C58.5327 25.9644 58.5327 27.367 57.6706 28.2291L45.5421 40.3575C42.4966 43.4031 38.449 45.1662 34.1449 45.3225C33.8285 45.334 33.528 45.4651 33.3045 45.6896L22.1005 56.9351C21.6131 57.4242 21.6145 58.2159 22.1037 58.7032C22.3476 58.9462 22.6669 59.0679 22.9861 59.0679C23.3067 59.0679 23.6276 58.9452 23.8717 58.7L32.1126 50.4287C34.2059 51.7716 36.6676 52.4101 39.1707 52.2446L45.6205 58.6945C45.8646 58.9385 46.1846 59.0607 46.5045 59.0607C46.8245 59.0607 47.1444 58.9386 47.3885 58.6945C47.8767 58.2062 47.8767 57.4146 47.3885 56.9262L40.531 50.068C40.2714 49.8085 39.9106 49.6759 39.5447 49.7059L39.1484 49.7384C37.3187 49.8884 35.5102 49.4876 33.9312 48.6027L34.7347 47.7964C39.4867 47.5032 43.9357 45.501 47.3116 42.125ZM18.9237 33.8239C18.5061 34.2416 17.9509 34.4715 17.3605 34.4715C16.7699 34.4715 16.2147 34.2416 15.7972 33.8239L12.419 30.4457C11.557 29.5837 11.557 28.1811 12.419 27.319C12.8366 26.9012 13.3919 26.6714 13.9824 26.6714C14.5729 26.6714 15.1281 26.9012 15.5456 27.319L18.9239 30.6971C19.7857 31.5591 19.7857 32.9617 18.9237 33.8239ZM23.8186 28.929C22.9565 29.791 21.5536 29.791 20.6919 28.929L17.3136 25.5507L15.6339 23.871C14.7719 23.009 14.7719 21.6064 15.6339 20.7444C16.0515 20.3266 16.6067 20.0967 17.1971 20.0967C17.7877 20.0967 18.3429 20.3266 18.7604 20.7444L23.8182 25.8022C23.8182 25.8022 23.8182 25.8022 23.8184 25.8022C24.2361 26.22 24.466 26.7751 24.466 27.3656C24.466 27.9561 24.2361 28.5114 23.8186 28.929ZM28.7132 24.0342C27.8511 24.8961 26.4484 24.8962 25.5865 24.0342L19.3049 17.7526C18.8872 17.335 18.6574 16.78 18.6574 16.1894C18.6574 15.5989 18.8872 15.0436 19.305 14.6261C19.736 14.1951 20.3022 13.9796 20.8682 13.9796C21.434 13.9796 21.9996 14.1949 22.4305 14.6251L25.2935 17.4881L28.713 20.9076H28.7131C29.1306 21.3252 29.3605 21.8802 29.3605 22.4709C29.3607 23.0615 29.1309 23.6167 28.7132 24.0342ZM33.608 19.1395C32.746 20.0015 31.3434 20.0015 30.4814 19.1395L24.1997 12.8579C24.1991 12.8572 24.1984 12.8566 24.1976 12.8559L22.976 11.6342C22.114 10.7721 22.114 9.36961 22.976 8.50749C23.407 8.07636 23.9732 7.86086 24.5394 7.86086C25.1055 7.86086 25.6717 8.07636 26.1026 8.50749L33.6077 16.0126C34.0255 16.4302 34.2554 16.9854 34.2554 17.5759C34.2555 18.1666 34.0257 18.722 33.608 19.1395ZM33.9367 12.8055L30.5027 9.37149C30.8921 9.45461 31.2925 9.49874 31.7 9.49861C31.7091 9.49861 31.7184 9.49861 31.7276 9.49861L35.1586 9.48249C35.849 9.47924 36.4062 8.91686 36.403 8.22636C36.3997 7.53786 35.8406 6.98199 35.1529 6.98199C35.1509 6.98199 35.1489 6.98199 35.1469 6.98199L31.7159 6.99811C31.7106 6.99811 31.7056 6.99811 31.7004 6.99811C30.855 6.99811 30.0599 6.66999 29.4604 6.07336C28.8571 5.47286 28.525 4.67361 28.525 3.82236V3.43311H37.0922C38.7016 3.43311 40.2535 4.10874 41.35 5.28699L41.4009 5.34161L33.9367 12.8055Z" fill="#FC5521"/>
</svg>
